<svg xmlns="http://www.w3.org/2000/svg" width="40" height="41" viewBox="0 0 40 41"><title>  instagram</title><g fill="none"><g fill="#FFE7B9"><path d="M36 0.8L4 0.8C1.8 0.8 0 2.6 0 4.8L0 36.8C0 39 1.8 40.8 4 40.8L36 40.8C38.2 40.8 40 39 40 36.8L40 4.8C40 2.6 38.2 0.8 36 0.8L36 0.8ZM20 12.8C24.4 12.8 28 16.4 28 20.8 28 25.2 24.4 28.8 20 28.8 15.6 28.8 12 25.2 12 20.8 12 16.4 15.6 12.8 20 12.8L20 12.8ZM5 36.8C4.4 36.8 4 36.4 4 35.8L4 18.8 8.2 18.8C8 19.4 8 20.2 8 20.8 8 27.4 13.4 32.8 20 32.8 26.6 32.8 32 27.4 32 20.8 32 20.2 32 19.4 31.8 18.8L36 18.8 36 35.8C36 36.4 35.6 36.8 35 36.8L5 36.8 5 36.8ZM36 9.8C36 10.4 35.6 10.8 35 10.8L31 10.8C30.4 10.8 30 10.4 30 9.8L30 5.8C30 5.2 30.4 4.8 31 4.8L35 4.8C35.6 4.8 36 5.2 36 5.8L36 9.8 36 9.8Z"/></g></g></svg>
