<svg xmlns="http://www.w3.org/2000/svg" width="40" height="41" viewBox="0 0 40 41"><title>  pintrest</title><g fill="none"><g fill="#FFE7B9"><path d="M36 0.8L4 0.8C1.8 0.8 0 2.6 0 4.8L0 36.8C0 39 1.8 40.8 4 40.8L36 40.8C38.2 40.8 40 39 40 36.8L40 4.8C40 2.6 38.2 0.8 36 0.8L36 0.8ZM22 29.2C20.4 29.2 18.8 28.6 17.8 27.4L15.8 33.8 15.6 34.2C15.2 34.8 14.6 35.2 13.8 35.2 12.6 35.2 11.6 34.2 11.6 33L11.6 32.8 11.6 32.8 11.8 32.4 15.4 21.2C15.4 21.2 15 20 15 18.2 15 14.8 16.8 13.8 18.4 13.8 19.8 13.8 21.2 14.4 21.2 16.4 21.2 19 19.4 20.4 19.4 22.4 19.4 23.8 20.6 25 22 25 26.6 25 28.4 21.4 28.4 18.2 28.4 13.8 24.6 10.2 20 10.2 15.4 10.2 11.6 13.8 11.6 18.2 11.6 19.6 12 20.8 12.6 22 12.8 22.4 12.8 22.6 12.8 23 12.8 24.2 12 25 10.8 25 10 25 9.4 24.6 9 24 8 22.2 7.4 20.2 7.4 18 7.4 11.4 13 6 19.8 6 26.6 6 32.2 11.4 32.2 18 32.4 23.6 29.2 29.2 22 29.2L22 29.2Z"/></g></g></svg>
