<?xml version="1.0" encoding="UTF-8"?>
<svg width="1673px" height="2821px" viewBox="0 0 1673 2821" version="1.1" xmlns="http://www.w3.org/2000/svg" xmlns:xlink="http://www.w3.org/1999/xlink">
    <title>Group Copy</title>
    <defs>
        <polygon id="path-1" points="0.06 0.53 1672.45 0.53 1672.45 2820.94 0.06 2820.94"></polygon>
    </defs>
    <g id="Page-1" stroke="none" stroke-width="1" fill="none" fill-rule="evenodd">
        <g id="Artboard" transform="translate(-1012.000000, 0.000000)">
            <g id="Group-Copy" transform="translate(1012.000000, 0.000000)">
                <g id="Group-5">
                    <mask id="mask-2" fill="white">
                        <use xlink:href="#path-1"></use>
                    </mask>
                    <g id="Clip-2"></g>
                    <polygon id="Fill-1" fill="#07284A" mask="url(#mask-2)" points="0.06 2820.94 1672.44 2820.94 1672.44 0.53 0.06 0.53"></polygon>
                    <path d="M1590.67,314.644 C1582.7,315.87 1575.04,317.188 1567.61,318.595 C1333.75,362.648 1361.69,494.612 1405.92,642.911 C1445.33,775.042 1497.74,920.215 1389.16,1027.5 C1253.43,1161.6 721.007,1098.13 779.371,621.397 C794.179,500.441 953.849,477.926 1046.54,493.859 C1074.76,390.31 1004.47,249.795 914.94,255.161 C766.491,264.047 719.316,177.593 639.161,136.607 C605.431,119.372 565.916,110.124 510.49,119.511 C322.138,151.41 232.79,260.081 185.023,400.227 C184.953,400.436 184.896,400.652 184.804,400.861 C128.454,566.82 130.252,776.784 95.331,955.818 C88.167,1044.32 47.106,1048.95 0.004,1039.59 L0.004,1924.65 C39.683,1974.46 84.09,2045.88 125.621,2120.01 L125.621,1239.54 L168.614,1239.54 C181.629,993.239 224.28,614.373 257.202,472.38 C258.168,468.198 259.142,464.149 260.095,460.379 C303.933,287.116 518.687,169.899 681.659,277.254 C681.659,277.254 449.695,356.077 603.174,398.282 C691.243,422.493 861.136,286.767 921.593,398.282 C921.593,398.282 657.605,435.631 605.205,555.105 C734.186,590.941 672.972,700.301 704.024,829.792 C745.772,1003.88 869.89,1112.26 893.929,1148.78 C912.288,1176.73 921.298,1196.43 913.552,1206.94 C909.257,1212.76 884.845,1196.05 858.864,1183.43 C833.593,1171.16 806.859,1162.76 795.758,1182.77 C789.867,1193.42 796.06,1211.81 807.755,1233.93 C808.729,1235.77 809.745,1237.64 810.792,1239.54 L1546.83,1239.54 L1546.83,1337.16 C1588.06,1358.03 1628.4,1376.69 1651.14,1358.05 C1670.55,1342.13 1566.27,1175.52 1595.03,1147.1 C1608.96,1133.34 1638.69,1144.52 1672.45,1163 L1672.45,305.848 C1645.88,307.471 1618.63,310.37 1590.67,314.644" id="Fill-4" fill="#354768" mask="url(#mask-2)"></path>
                </g>
                <g id="hetArendshuys-smallLogo" transform="translate(125.621000, 1239.540000)">
                    <polygon id="Fill-3" fill="#FCE1AF" points="-1.13686838e-13 1168.43 1421.209 1168.43 1421.209 1.13686838e-13 -1.13686838e-13 1.13686838e-13"></polygon>
                    <polygon id="Fill-6" fill="#07284A" points="652.231 141.26 673.428 141.26 673.428 413.85 652.231 413.85 652.231 269.82 638.085 269.82 638.085 413.85 616.888 413.85 616.888 141.26 638.085 141.26 638.085 249.62 652.231 249.62"></polygon>
                    <polyline id="Fill-7" fill="#07284A" points="712.942 161.45 712.942 249.62 734.15 249.62 734.15 269.82 712.942 269.82 712.942 393.66 734.15 393.66 734.15 413.85 691.745 413.85 691.745 141.26 734.15 141.26 734.15 161.45 712.942 161.45"></polyline>
                    <polyline id="Fill-8" fill="#07284A" points="764.079 161.45 743.882 161.45 743.882 141.26 805.482 141.26 805.482 161.45 785.284 161.45 785.284 413.85 764.079 413.85 764.079 161.45"></polyline>
                    <path d="M160.007,650.71 L160.007,512.85 C160.007,507.81 157.763,503.89 152.714,503.89 L150.47,503.89 C145.43,503.89 143.186,507.25 143.186,512.85 L143.186,650.71 L160.007,650.71 Z M107.88,502.76 C107.88,480.9 123.58,470.25 144.87,470.25 L157.202,470.25 C175.127,470.25 195.303,480.35 195.303,502.76 L195.303,924.2 L160.007,924.2 L160.007,684.35 L143.186,684.35 L143.186,924.2 L107.88,924.2 L107.88,502.76 L107.88,502.76 Z" id="Fill-9" fill="#07284A"></path>
                    <path d="M276.976,503.89 L267.439,503.89 L267.439,651.83 L278.08,651.83 C283.68,651.83 288.169,647.34 288.169,639.52 L288.169,518.46 C288.169,510.05 283.68,503.89 276.976,503.89 Z M288.169,699.48 C288.169,691.63 283.68,685.47 276.976,685.47 L267.439,685.47 L267.439,924.2 L232.143,924.2 L232.143,470.25 L279.762,470.25 C310.59,470.25 323.493,491.55 323.493,516.22 L323.493,636.15 C323.493,654.08 316.2,664.17 304.428,668.65 C316.2,673.13 323.493,687.15 323.493,702.28 L323.493,924.2 L288.169,924.2 L288.169,699.48 L288.169,699.48 Z" id="Fill-10" fill="#07284A"></path>
                    <polyline id="Fill-11" fill="#07284A" points="391.814 503.89 391.814 650.71 427.138 650.71 427.138 684.35 391.814 684.35 391.814 890.59 427.138 890.59 427.138 924.2 356.517 924.2 356.517 470.25 427.138 470.25 427.138 503.89 391.814 503.89"></polyline>
                    <polyline id="Fill-12" fill="#07284A" points="488.016 636.15 488.016 924.2 453.272 924.2 453.272 470.25 489.138 470.25 535.094 725.82 535.094 470.25 570.39 470.25 570.39 924.2 542.938 924.2 488.016 636.15"></polyline>
                    <path d="M643.321,503.89 L641.077,503.89 L641.077,890.59 L643.321,890.59 C655.653,890.59 660.122,882.74 660.122,871.53 L660.122,522.95 C660.122,511.73 654.532,503.89 643.321,503.89 Z M605.771,470.25 L649.492,470.25 C679.188,470.25 695.448,489.87 695.448,513.97 L695.448,880.5 C695.448,906.27 680.3,924.2 649.492,924.2 L605.771,924.2 L605.771,470.25 L605.771,470.25 Z" id="Fill-13" fill="#07284A"></path>
                    <path d="M774.271,926.44 L770.903,926.44 C743.435,926.44 726.632,908.52 726.632,882.74 L726.632,823.34 L759.132,823.34 L759.132,879.37 C759.132,887.23 764.733,892.26 772.026,892.26 C779.88,892.26 785.482,887.23 785.482,879.37 L785.482,700.6 C785.482,688.83 782.677,680.99 770.903,675.37 L745.116,663.05 C732.241,656.88 726.632,645.12 726.632,629.42 L726.632,510.61 C726.632,483.71 741.751,468.01 770.903,468.01 L773.148,468.01 C801.181,468.01 817.982,484.27 817.982,510.61 L817.982,558.8 L782.677,558.8 L782.677,512.29 C782.677,505.01 778.198,501.65 772.587,501.65 C766.978,501.65 762.489,505.01 762.489,512.29 L762.489,614.86 C762.489,629.98 765.855,636.15 777.636,641.19 L798.937,650.71 C812.372,656.88 817.982,668.09 817.982,684.91 L817.982,883.3 C817.982,906.84 802.302,926.44 774.271,926.44" id="Fill-14" fill="#07284A"></path>
                    <polyline id="Fill-15" fill="#07284A" points="909.419 650.71 909.419 470.25 944.719 470.25 944.719 924.2 909.419 924.2 909.419 684.35 885.869 684.35 885.869 924.2 850.567 924.2 850.567 470.25 885.869 470.25 885.869 650.71 909.419 650.71"></polyline>
                    <path d="M1027.059,927.57 L1024.829,927.57 C995.679,927.57 980.539,909.08 980.539,884.42 L980.539,470.25 L1015.859,470.25 L1015.859,880.5 C1015.859,889.47 1020.349,893.94 1025.939,893.94 C1033.219,893.94 1036.589,888.91 1036.589,880.5 L1036.589,470.25 L1071.889,470.25 L1071.889,884.99 C1071.889,908.52 1058.439,927.57 1027.059,927.57" id="Fill-16" fill="#07284A"></path>
                    <polyline id="Fill-17" fill="#07284A" points="1204.949 470.25 1169.089 633.91 1169.089 924.2 1134.339 924.2 1134.339 633.91 1097.919 470.25 1133.219 470.25 1151.149 579.54 1170.209 470.25 1204.949 470.25"></polyline>
                    <path d="M1269.639,926.44 L1266.269,926.44 C1238.799,926.44 1221.999,908.52 1221.999,882.74 L1221.999,823.34 L1254.499,823.34 L1254.499,879.37 C1254.499,887.23 1260.099,892.26 1267.389,892.26 C1275.239,892.26 1280.849,887.23 1280.849,879.37 L1280.849,700.6 C1280.849,688.83 1278.039,680.99 1266.269,675.37 L1240.479,663.05 C1227.609,656.88 1221.999,645.12 1221.999,629.42 L1221.999,510.61 C1221.999,483.71 1237.119,468.01 1266.269,468.01 L1268.519,468.01 C1296.549,468.01 1313.349,484.27 1313.349,510.61 L1313.349,558.8 L1278.039,558.8 L1278.039,512.29 C1278.039,505.01 1273.559,501.65 1267.959,501.65 C1262.339,501.65 1257.869,505.01 1257.869,512.29 L1257.869,614.86 C1257.869,629.98 1261.219,636.15 1272.999,641.19 L1294.299,650.71 C1307.739,656.88 1313.349,668.09 1313.349,684.91 L1313.349,883.3 C1313.349,906.84 1297.669,926.44 1269.639,926.44" id="Fill-18" fill="#07284A"></path>
                    <path d="M710.612,1079.2 C787.735,1079.2 860.571,1060.81 924.969,1028.19 L496.254,1028.19 C560.667,1060.81 633.475,1079.2 710.612,1079.2" id="Fill-19" fill="#F3B237"></path>
                </g>
                <g id="stijlvol-wonen" transform="translate(281.252000, 2495.440000)" fill="#FCE1AF">
                    <polyline id="Fill-20" points="169.348 53.74 170.012 53.36 167.498 53.73 168.301 53.92 169.348 53.74"></polyline>
                    <polyline id="Fill-21" points="172.79 64.86 172.957 64.85 172.957 64.78 172.79 64.86"></polyline>
                    <polyline id="Fill-22" points="222.934 54.53 227.141 56.31 228.254 56.08 232.471 53.2 233.565 45.68 232.911 43.68 231.133 41.46 228.469 39.69 226.038 38.8 221.157 40.79 220.269 41.9 219.381 46.33 220.502 52.55 222.934 54.53"></polyline>
                    <path d="M243.785,170.02 L237.352,186.41 L236.257,188.42 L234.032,193.97 L233.144,195.51 L232.705,198.18 L231.601,201.27 L232.48,202.82 L231.601,203.27 L230.274,205.25 L224.495,217.02 L224.729,219.68 L223.167,219.89 L221.176,222.33 L216.968,224.78 L214.977,226.32 L214.08,224.1 L213.201,219.68 L213.415,217.24 L214.977,214.14 L214.977,210.14 L216.735,205.7 L217.417,202.6 L220.737,196.18 L224.729,187.3 L230.713,179.99 L232.48,177.11 L234.92,175.57 L242.448,168.46 L244.448,166.92 L243.785,170.02 Z M152.575,67.44 L154.165,67.53 L150.901,68 L152.575,67.44 Z M159.222,66.78 L159.447,66.78 L159.045,66.84 L159.222,66.78 Z M164.496,65.85 L165.356,65.94 L164.028,66.12 L164.496,65.85 Z M306.075,150.51 L304.082,148.97 L296.986,146.97 L276.37,149.18 L274.592,149.85 L265.29,152.07 L266.618,146.53 L268.16,145.41 L268.842,138.77 L271.713,132.56 L273.49,125.25 L276.809,115.49 L277.473,110.85 L278.585,108.84 L279.034,106.41 L280.127,104.63 L281.016,97.1 L284.569,86 L283.242,81.13 L279.034,77.14 L275.92,76.04 L275.032,76.26 L273.705,77.14 L272.386,78.7 L269.497,80.47 L264.176,85.57 L261.082,87.56 L258.641,88.45 L253.537,92.66 L251.76,95.1 L247.543,98.2 L245.561,100.42 L242.681,101.96 L240.905,104.41 L239.474,105.66 L238.894,105.52 L222.27,118.15 L216.95,120.59 L215.388,121.93 L213.182,123.02 L211.62,124.8 L208.526,124.8 L206.758,125.25 L206.524,124.59 L207.647,123.02 L207.852,118.15 L209.189,116.15 L208.526,113.05 L209.853,111.73 L210.741,109.51 L212.293,107.96 L215.837,96.87 L216.725,91.99 L215.837,88.45 L213.63,85.79 L210.078,82.68 L206.963,81.8 L205.87,82.02 L202.317,83.8 L198.549,86.23 L196.332,88.45 L194.108,89.78 L192.78,91.77 L189.46,91.99 L186.141,94.88 L181.251,97.76 L178.821,101.09 L176.156,103.09 L174.613,103.09 L174.426,103.33 L174.239,103.29 L171.574,106.18 L162.925,113.05 L161.831,115.05 L159.381,115.05 L157.623,115.94 L155.847,118.15 L153.182,119.26 L151.406,120.59 L149.19,121.48 L141.429,126.13 L138.989,126.13 L135.23,127.91 L129.247,127.91 L126.581,127.02 L126.132,124.59 L126.132,122.81 L126.806,121.25 L126.581,118.6 L128.133,117.27 L128.797,114.61 L130.574,111.94 L130.574,108.62 L134.118,105.52 L134.567,103.29 L135.894,101.96 L137.212,99.75 L138.334,99.08 L138.989,97.1 L140.55,94.88 L142.991,89.11 L145.862,86.45 L147.637,82.68 L150.302,81.36 L153.846,74.71 L156.053,73.6 L156.735,70.94 L158.278,70.05 L159.166,67.61 L161.597,67.61 L162.954,66.78 L164.542,66.78 L168.395,66.27 L168.469,66.29 L168.536,66.26 L170.76,65.97 L172.79,64.86 L171.807,65.02 L173.125,64.52 L176.904,64.28 L172.957,64.85 L172.957,65 L175.173,64.56 L180.718,64.78 L190.031,62.57 L192.471,62.79 L195.323,62.53 L198.875,62.97 L208.862,63.4 L210.844,62.97 L211.956,61.85 L212.396,60.31 L211.733,56.31 L209.956,53.44 L207.525,50.32 L203.083,49 L201.307,49.23 L198.436,48.78 L195.118,49.67 L193.117,49.88 L188.9,51.66 L191.143,49.93 L181.158,51.93 L179.848,51.93 L180.223,51.87 L179.764,51.93 L178.493,51.93 L176.735,51.26 L174.781,52.51 L170.686,52.99 L170.012,53.36 L174.454,52.71 L174.286,52.81 L169.348,53.74 L168.704,54.09 L167.367,54.09 L167.254,53.77 L167.498,53.73 L167.226,53.67 L167.142,53.44 L167.367,52.1 L168.909,50.32 L172.247,47.88 L172.686,47.22 L173.575,43.24 L172.023,38.12 L169.592,35.25 L167.367,34.36 L165.59,36.14 L163.373,39.01 L159.381,45.88 L156.053,48.77 L152.518,53.2 L147.198,56.08 L139.438,57.64 L136.343,59.19 L129.686,61.19 L124.59,60.74 L123.916,61.19 L121.925,63.83 L120.373,62.52 L117.932,64.28 L114.614,69.61 L114.389,70.94 L114.838,72.93 L115.941,74.03 L117.278,74.71 L119.924,74.48 L122.15,74.93 L125.245,73.16 L130.79,72.28 L133.454,71.39 L137.006,71.39 L138.334,70.94 L140.766,70.71 L140.327,72.28 L138.549,73.37 L135.894,78.7 L133.454,81.13 L131.023,84.69 L129.247,86.68 L128.358,90.23 L129.911,91.77 L129.022,93.32 L126.357,92.66 L125.478,95.1 L122.935,100 L121.028,100.65 L94.651,113.72 L95.09,111.73 L97.316,109.96 L100.411,105.07 L101.748,103.53 L101.075,100.86 L102.412,99.53 L103.299,95.77 L103.524,93.55 L101.524,86.45 L99.298,83.56 L97.316,81.58 L90.659,78.47 L90.219,78.47 L86.675,80.69 L86.236,79.8 L86.89,77.14 L86.442,76.04 L85.553,75.6 L82.458,75.6 L75.362,73.37 L74.698,73.6 L73.585,74.71 L70.266,72.28 L64.282,71.6 L59.635,69.61 L57.41,70.5 L54.979,69.39 L52.314,70.05 L48.555,68.28 L46.779,68.72 L43.665,67.84 L41.234,68.5 L39.672,68.05 L38.354,68.95 L36.129,66.95 L34.811,66.95 L33.034,68.5 L32.371,68.5 L31.473,66.72 L26.386,64.72 L23.936,64.52 L21.505,62.96 L18.177,61.85 L17.728,60.96 L17.513,58.97 L21.505,53.44 L22.161,51.21 L24.825,49.88 L25.938,47.66 L30.594,44.34 L33.034,42.12 L35.016,41.68 L36.578,39.24 L39.018,39.46 L41.234,36.36 L43.665,35.92 L46.331,34.15 L48.106,33.91 L49.424,32.59 L53.651,31.48 L55.858,29.93 L56.082,27.72 L57.185,26.15 L58.747,26.6 L61.178,28.15 L65.825,25.71 L68.714,24.61 L70.715,23.28 L72.257,23.51 L80.692,20.4 L84.235,20.4 L91.538,18.4 L105.516,16.85 L111.499,17.74 L113.715,17.74 L118.138,19.28 L125.459,20.4 L128.124,20.4 L129.676,23.28 L131.883,24.83 L134.323,28.15 L135.661,29.27 L136.54,32.14 L134.108,33.03 L132.331,34.6 L131.229,36.36 L130.79,37.92 L131.229,39.24 L133.883,42.12 L136.325,43.24 L137.427,43.01 L141.206,41.01 L142.524,39.24 L144.084,36.58 L144.084,27.49 L142.757,20.4 L141.645,18.63 L141.645,16.19 L141.206,15.52 L139.204,14.63 L138.755,13.09 L136.54,10.87 L134.323,7.11 L132.771,6.87 L130.555,8 L129.452,5.99 L128.124,4.66 L127.236,4.22 L123.683,3.99 L122.355,2 L121.476,1.78 L120.364,2.67 L118.587,3.11 L117.25,1.56 L116.362,1.33 L111.949,2 L107.947,-2.55795385e-13 L106.62,-2.55795385e-13 L105.731,1.12 L105.516,2.44 L103.076,1.33 L98.859,0.68 L93.987,1.78 L90.219,1.78 L87.554,2.44 L86.002,1.56 L84.459,1.78 L82.683,2.88 L80.907,4.66 L78.027,4.22 L71.155,7.11 L63.842,8.2 L62.505,8.86 L60.963,10.64 L58.082,10.64 L55.858,12.64 L52.081,13.3 L50.538,15.75 L48.322,16.19 L45.891,17.08 L36.354,21.74 L29.92,26.6 L28.827,28.38 L27.05,29.27 L22.842,32.14 L17.289,37.92 L16.41,39.46 L13.745,41.46 L12.642,44.34 L10.416,46.33 L7.976,50.77 L7.097,52.99 L6.209,59.86 L6.658,63.39 L9.538,67.39 L15.288,71.39 L18.401,71.6 L19.729,72.71 L21.955,73.37 L23.712,74.48 L30.809,75.81 L33.473,77.14 L36.578,76.49 L37.456,77.81 L39.672,78.47 L44.338,78.47 L45.666,79.36 L48.106,80.02 L48.985,81.13 L51.426,81.36 L54.09,82.25 L55.633,82.25 L65.385,85.13 L66.713,84.9 L68.938,86.9 L72.257,88.68 L74.698,89.55 L77.363,90 L78.681,91.56 L81.794,94.21 L82.683,97.1 L84.01,99.08 L82.458,100.86 L80.907,105.52 L78.915,107.51 L73.585,115.05 L70.93,117.72 L65.825,121.69 L64.731,123.02 L62.066,123.47 L59.186,125.69 L56.746,125.69 L53.202,127.46 L48.761,128.56 L46.331,130.13 L41,132.34 L38.129,134.55 L35.016,135.22 L31.921,137.21 L29.481,137.65 L24.161,140.32 L21.066,140.97 L18.625,142.75 L14.4,143.64 L12.193,145.64 L4.881,148.73 L1.777,150.96 L0.225,153.17 L-9.66338121e-13,154.51 L1.113,157.16 L5.096,159.61 L7.976,159.38 L10.641,160.05 L22.842,157.38 L26.162,156.94 L31.034,155.4 L35.25,154.51 L41.234,151.4 L48.555,148.97 L53.651,145.41 L55.858,144.97 L59.84,141.86 L64.936,139.43 L75.586,132.12 L79.803,130.78 L85.553,126.8 L87.779,126.13 L89.106,124.8 L96.204,122.58 L101.299,119.26 L103.955,118.81 L109.284,116.38 L111.266,114.82 L116.362,113.49 L117.484,111.73 L118.045,111.73 L118.166,114.82 L117.053,116.6 L116.83,117.49 L117.717,122.58 L117.717,125.02 L118.606,127.02 L119.055,129.89 L124.356,136.99 L127.469,138.77 L130.574,141.21 L133.893,140.1 L137.895,139.88 L139.653,139.2 L144.319,138.54 L147.637,135.88 L149.863,135.22 L153.622,133.22 L156.287,132.56 L159.166,129.45 L160.943,129.69 L161.831,128.8 L162.925,126.57 L165.366,124.8 L167.59,122.13 L172.023,118.15 L173.35,115.94 L175.959,113.98 L176.156,113.94 L179.475,110.85 L180.812,108.18 L186.581,105.96 L187.469,102.85 L188.573,102.4 L190.124,103.09 L192.125,101.75 L193.902,101.31 L195.66,99.75 L197.221,100.2 L199.437,98.64 L200.54,98.87 L200.98,99.97 L199.204,103.53 L198.549,106.41 L196.997,108.62 L195.445,113.72 L194.556,114.61 L193.902,117.93 L192.331,123.25 L192.125,125.25 L192.565,128.56 L193.668,131.89 L194.108,137.43 L196.332,139.43 L200.326,141.42 L202.541,140.97 L204.982,140.97 L207.413,138.99 L209.853,138.77 L211.62,138.1 L214.724,135.44 L217.614,134.55 L218.932,133.01 L221.821,131.23 L227.356,126.36 L230.246,124.36 L234.238,121.04 L237.567,117.27 L240.11,111.78 L240.241,112.17 L242.008,113.94 L243.569,114.61 L244.897,114.17 L246,113.28 L246.45,111.05 L251.545,107.96 L252.208,105.96 L255.538,103.53 L257.081,101.09 L266.178,95.33 L266.178,97.76 L263.953,107.73 L261.522,114.17 L260.194,116.83 L260.418,119.93 L257.081,129.69 L257.081,132.12 L255.752,133.67 L255.303,135.88 L253.761,139.43 L253.322,143.2 L251.545,147.19 L249.114,155.17 L246.45,156.94 L242.896,160.5 L236.257,165.14 L230.479,170.9 L227.824,174.01 L224.29,180.43 L221.176,182.21 L218.959,185.54 L216.735,188.19 L214.08,193.29 L212.527,198.83 L210.545,201.5 L210.096,203.94 L208.543,207.27 L207.88,210.58 L205.44,218.11 L205.44,227.21 L205.879,232.09 L206.992,233.86 L208.095,236.52 L209.862,238.07 L211.639,240.5 L214.977,242.06 L216.735,241.39 L224.055,235.86 L227.16,232.54 L232.032,224.98 L232.929,222.78 L235.575,220.34 L236.913,216.13 L238.689,214.14 L239.352,211.69 L240.465,210.81 L241.792,206.14 L243.129,205.05 L245.112,199.06 L247.337,195.29 L247.992,192.63 L249.553,191.08 L251.096,186.65 L253.097,184.21 L253.097,179.78 L257.081,174.01 L257.745,170.9 L257.305,168.69 L259.305,166.92 L259.969,164.7 L261.082,163.37 L261.082,160.5 L261.97,159.16 L268.394,156.29 L270.385,156.94 L275.92,155.4 L279.034,155.4 L282.138,154.72 L284.569,155.61 L287.683,156.29 L290.114,157.83 L295.209,158.49 L296.538,158.93 L299.651,164.04 L300.979,164.48 L307.412,163.59 L308.505,162.27 L309.169,158.72 L308.299,154.28 L306.075,150.51 L306.075,150.51 Z" id="Fill-23"></path>
                    <polyline id="Fill-24" points="281.905 46.56 283.242 47.45 285.457 47.88 290.114 47 293.666 40.79 292.779 37.92 288.571 33.47 284.793 32.37 279.034 33.26 277.921 37.92 278.146 39.69 281.905 46.56"></polyline>
                    <path d="M310.077,88.89 L312.741,81.36 L319.165,69.61 L319.389,66.72 L321.605,66.29 L323.166,63.63 L324.055,60.96 L326.486,57.41 L328.262,55.64 L327.588,52.76 L329.366,52.99 L331.815,50.1 L337.799,41.01 L341.119,38.12 L342.661,35.69 L344.438,34.15 L346.214,29.71 L348.879,28.59 L349.767,25.27 L353.086,23.51 L353.75,25.95 L352.862,28.59 L352.862,31.25 L351.31,33.03 L349.319,37.92 L345.765,43.68 L344.877,47.45 L343.334,47.66 L342.446,49.88 L340.455,51.43 L339.342,53.88 L336.462,56.98 L336.023,59.63 L334.91,60.96 L334.022,62.74 L332.469,63.18 L331.132,65.85 L326.709,69.83 L325.382,72.48 L322.502,75.6 L321.83,80.02 L320.277,79.8 L318.958,80.69 L315.621,84.25 L314.742,86.45 L312.086,88.45 L310.749,90.44 L308.973,90.88 L310.077,88.89 Z M424.67,96.65 L426.223,94.21 L427.335,90 L426.447,86.45 L422.679,82.91 L420.463,82.02 L419.35,82.02 L414.04,83.12 L411.814,84.25 L404.942,89.78 L403.623,91.56 L396.087,99.53 L393.637,101.31 L390.758,104.86 L389.879,106.41 L386.55,108.84 L385.653,111.05 L384.559,112.61 L382.558,114.17 L379.463,117.93 L375.91,121.25 L375.461,123.25 L373.469,123.47 L373.021,125.46 L370.814,126.36 L369.926,127.24 L369.477,127.24 L370.374,122.58 L368.373,120.37 L368.373,119.04 L370.59,118.15 L371.039,115.49 L373.254,111.73 L373.021,106.41 L374.797,104.41 L375.022,100.65 L377.023,96.21 L377.686,93.1 L376.359,88.45 L373.021,85.13 L368.373,83.8 L364.831,84.69 L361.501,86.9 L359.276,87.78 L357.949,89.34 L355.518,90.88 L353.292,91.56 L351.525,94.44 L348.42,94.66 L346.654,97.99 L343.764,98.43 L343.1,99.75 L338.893,103.97 L337.781,105.73 L337.678,106.07 L336.911,106.41 L333.133,112.17 L330.478,112.61 L328.262,116.83 L325.149,118.15 L324.943,120.59 L324.26,121.93 L322.053,121.93 L320.501,123.25 L318.51,123.91 L317.836,125.02 L318.071,126.8 L316.949,128.12 L314.742,127.46 L308.084,131.23 L307.42,130.58 L304.981,130.58 L303.213,128.12 L302.549,124.59 L302.549,121.93 L301.876,119.48 L303.213,112.83 L302.989,109.72 L303.877,107.96 L304.326,106.18 L306.533,107.51 L309.637,108.18 L311.853,107.51 L312.741,106.41 L314.069,102.85 L319.389,97.54 L320.941,94.88 L321.605,92.66 L323.166,91.99 L324.055,89.78 L326.486,88.89 L326.925,86.9 L329.805,82.02 L332.469,80.02 L333.573,75.37 L335.798,74.26 L338.678,68.05 L341.119,65.17 L342.006,62.29 L343.334,60.96 L345.102,57.85 L347.991,53.88 L348.879,51.43 L351.31,47.88 L351.543,45.44 L352.862,45.44 L355.957,39.24 L357.733,36.8 L357.967,32.59 L359.958,31.04 L360.183,27.28 L361.941,25.95 L363.717,20.4 L365.718,17.08 L364.4,12.64 L359.958,8.2 L354.863,6.87 L350.656,7.76 L346.878,10.2 L345.541,12.41 L345.102,14.63 L343.784,15.07 L340.23,17.3 L339.342,18.19 L338.229,20.17 L337.565,22.39 L332.909,26.84 L327.588,34.15 L325.382,37.68 L324.709,40.79 L323.821,43.01 L321.605,43.24 L319.165,47.45 L317.182,49.22 L315.621,52.32 L313.844,53.44 L310.964,59.19 L308.534,62.74 L306.981,65.85 L307.42,68.05 L305.42,69.39 L301.437,76.26 L295.228,93.1 L292.358,97.76 L292.564,101.75 L289.909,109.96 L290.581,113.28 L290.357,115.94 L291.675,118.81 L289.909,119.04 L289.693,124.59 L292.124,128.8 L292.564,132.56 L295.453,136.99 L296.771,138.33 L299.436,140.1 L301.876,139.2 L304.326,140.54 L306.308,140.54 L306.757,141.21 L308.309,140.54 L310.516,140.54 L311.853,139.43 L314.742,139.43 L316.06,138.33 L318.276,137.65 L319.165,136.11 L322.053,134.99 L323.372,133.44 L325.149,132.34 L326.709,130.78 L328.262,131.01 L330.693,126.8 L333.358,125.25 L334.91,121.93 L337.565,121.25 L339.782,118.15 L341.782,117.04 L343.1,115.05 L345.326,113.94 L345.541,109.72 L347.541,106.85 L347.252,105.84 L347.308,105.73 L351.31,103.97 L352.404,100.65 L356.181,100.2 L359.276,98.2 L359.958,100.2 L357.509,106.63 L354.629,119.04 L352.404,124.8 L351.749,128.35 L353.086,134.12 L353.975,135.88 L361.287,144.09 L364.166,144.97 L365.709,144.75 L368.598,141.86 L371.253,139.88 L374.358,134.78 L377.453,132.34 L379.014,129.45 L381.006,127.69 L382.342,125.02 L384.774,123.91 L385.653,121.48 L387.878,120.81 L389.43,118.6 L389.879,116.83 L390.758,115.49 L392.758,115.05 L394.526,113.05 L396.742,111.5 L398.518,108.84 L402.287,106.85 L404.502,103.74 L406.279,102.85 L408.934,102.2 L410.487,99.97 L412.926,99.53 L414.704,98.2 L416.91,98.64 L418.92,98.2 L421.127,96.65 L423.577,97.31 L424.67,96.65 L424.67,96.65 Z" id="Fill-25"></path>
                    <path d="M479.331,92.44 L476.891,94.44 L474.459,97.54 L474.01,99.75 L474.459,101.31 L475.563,103.09 L478.003,105.52 L478.666,107.96 L477.779,112.83 L474.235,120.15 L471.794,122.13 L470.457,125.02 L466.25,128.35 L465.371,130.58 L463.594,130.58 L461.379,133.44 L458.937,134.33 L457.161,136.11 L452.729,137.21 L448.952,136.56 L446.521,136.56 L446.082,133.89 L444.539,129.89 L445.643,124.36 L444.305,122.81 L444.09,122.13 L444.539,121.25 L446.746,119.93 L447.419,117.04 L449.635,110.61 L455.385,104.63 L456.713,101.53 L459.387,100.65 L461.602,98.2 L463.594,97.76 L465.146,95.1 L466.475,95.1 L467.811,95.98 L474.459,93.99 L476.236,92.21 L478.666,91.12 L479.331,91.77 L479.331,92.44 Z M490.635,97.76 L489.092,95.33 L487.97,92.88 L484.875,91.32 L486.428,89.11 L486.652,87.78 L486.204,85.57 L485.1,84.01 L481.987,82.02 L470.906,78.47 L468.026,79.8 L457.161,82.68 L451.411,84.9 L440.323,91.77 L438.106,92.44 L434.553,95.77 L429.907,99.31 L427.906,102.2 L425.465,102.85 L421.482,108.62 L421.921,111.05 L421.921,113.94 L422.585,114.82 L423.483,115.05 L424.811,114.82 L426.354,113.28 L427.691,110.85 L428.793,111.5 L429.682,111.05 L430.346,108.84 L432.123,108.41 L433.674,106.63 L434.553,107.96 L431.898,116.15 L431.898,120.37 L431,122.13 L430.795,127.91 L431.898,131.01 L434.338,135.44 L435.666,136.99 L439.873,140.54 L442.763,143.43 L445.428,144.09 L447.194,145.41 L449.635,144.75 L454.936,144.75 L456.713,143.43 L459.387,143.2 L467.587,138.99 L468.924,138.99 L473.131,134.99 L474.665,135.44 L483.108,127.91 L483.763,125.69 L485.54,123.47 L486.652,121.04 L489.307,117.93 L489.747,116.83 L490.186,113.72 L490.186,111.29 L491.299,109.51 L491.748,106.85 L491.524,101.31 L490.635,97.76 L490.635,97.76 Z" id="Fill-26"></path>
                    <path d="M561.585,28.59 L561.585,31.25 L560.024,33.03 L558.032,37.92 L554.487,43.68 L553.598,47.45 L552.045,47.66 L551.149,49.88 L549.167,51.43 L548.054,53.88 L545.165,56.98 L544.726,59.63 L543.632,60.96 L542.734,62.74 L541.182,63.18 L539.854,65.85 L535.422,69.83 L534.094,72.48 L531.214,75.6 L530.541,80.02 L528.989,79.8 L527.661,80.69 L524.342,84.25 L523.453,86.45 L520.789,88.45 L519.451,90.44 L517.675,90.88 L518.797,88.89 L521.452,81.36 L527.885,69.61 L528.11,66.72 L530.327,66.29 L531.869,63.63 L532.757,60.96 L535.198,57.41 L536.964,55.64 L536.31,52.76 L538.086,52.99 L540.518,50.1 L546.501,41.01 L549.822,38.12 L551.391,35.69 L553.149,34.15 L554.926,29.71 L557.583,28.59 L558.472,25.27 L561.8,23.51 L562.464,25.95 L561.585,28.59 Z M573.104,12.64 L568.663,8.2 L563.567,6.87 L559.36,7.76 L555.598,10.2 L554.262,12.41 L553.823,14.63 L552.485,15.07 L548.933,17.3 L548.054,18.19 L546.941,20.17 L546.279,22.39 L541.63,26.84 L536.31,34.15 L534.094,37.68 L533.42,40.79 L532.541,43.01 L530.327,43.24 L527.885,47.45 L525.885,49.22 L524.342,52.32 L522.565,53.44 L519.694,59.19 L517.235,62.74 L515.693,65.85 L516.142,68.05 L514.141,69.39 L510.157,76.26 L503.931,93.1 L501.061,97.76 L501.284,101.75 L498.629,109.96 L499.284,113.28 L499.069,115.94 L500.396,118.81 L498.629,119.04 L498.396,124.59 L500.836,128.8 L501.284,132.56 L504.174,136.99 L505.501,138.33 L508.156,140.1 L510.597,139.2 L513.028,140.54 L515.029,140.54 L515.469,141.21 L517.02,140.54 L519.246,140.54 L520.564,139.43 L523.453,139.43 L524.781,138.33 L526.997,137.65 L527.885,136.11 L530.766,134.99 L532.102,133.44 L533.87,132.34 L535.422,130.78 L536.964,131.01 L539.405,126.8 L542.07,125.25 L543.632,121.93 L546.279,121.25 L548.503,118.15 L550.495,117.04 L551.821,115.05 L554.038,113.94 L554.262,109.72 L556.257,106.85 L555.375,103.74 L555.598,100.2 L553.823,99.08 L550.495,101.31 L550.056,103.74 L549.167,104.86 L545.615,106.41 L541.855,112.17 L539.18,112.61 L536.964,116.83 L533.87,118.15 L533.645,120.59 L532.981,121.93 L530.766,121.93 L529.213,123.25 L527.212,123.91 L526.548,125.02 L526.772,126.8 L525.679,128.12 L523.453,127.46 L516.806,131.23 L516.142,130.58 L513.691,130.58 L511.934,128.12 L511.252,124.59 L511.252,121.93 L510.597,119.48 L511.934,112.83 L511.691,109.72 L512.589,107.96 L513.028,106.18 L515.244,107.51 L518.357,108.18 L520.564,107.51 L521.452,106.41 L522.789,102.85 L528.11,97.54 L529.663,94.88 L530.327,92.66 L531.869,91.99 L532.757,89.78 L535.198,88.89 L535.646,86.9 L538.526,82.02 L541.182,80.02 L542.294,75.37 L544.511,74.26 L547.39,68.05 L549.822,65.17 L550.709,62.29 L552.045,60.96 L553.823,57.85 L556.696,53.88 L557.583,51.43 L560.024,47.88 L560.249,45.44 L561.585,45.44 L564.69,39.24 L566.456,36.8 L566.671,32.59 L568.663,31.04 L568.897,27.28 L570.673,25.95 L572.44,20.4 L574.433,17.08 L573.104,12.64 L573.104,12.64 Z" id="Fill-27"></path>
                    <polyline id="Fill-28" points="758.838 84.6 762.618 75.29 764.388 73.96 765.718 70.19 769.918 64.87 772.588 56.24 775.028 53.58 775.478 51.58 775.478 46.7 777.918 44.93 778.568 38.06 781.898 31.18 781.688 25.42 783.008 22.97 782.348 18.55 783.218 11.67 780.578 4.37 778.568 3.04 775.478 2.59 769.918 3.93 766.168 7.02 764.608 11.01 763.938 20.11 765.948 26.75 765.058 27.86 765.268 31.18 764.388 33.18 766.378 34.94 766.608 36.51 765.058 37.17 764.388 39.38 764.388 43.59 761.958 47.37 761.738 50.26 759.278 54.67 758.188 60 755.978 64.66 755.748 67.09 752.858 71.53 752.418 73.75 748.208 81.95 747.538 84.16 746.218 85.5 746.218 87.7 743.558 88.14 741.778 93.92 739.558 95.02 736.458 101.45 734.678 102.78 733.818 105.66 731.798 106.99 730.038 109.65 723.598 115.63 720.948 117.63 718.497 118.3 716.067 118.3 713.636 115.86 713.186 114.98 713.401 111.87 712.747 106.99 712.962 104.11 712.747 101.89 713.636 98.79 713.636 97.02 714.964 93.92 714.524 90.15 716.517 89.48 716.292 86.82 717.179 85.28 717.395 83.27 720.068 76.84 720.508 72.86 722.278 70.86 722.498 68.86 724.048 63.77 724.048 61.34 727.148 60.45 727.588 59.56 727.588 57.34 730.478 50.91 731.798 47.14 734.018 43.59 734.678 40.94 736.458 37.83 736.908 36.06 736.458 33.4 734.678 29.85 727.378 28.09 720.508 32.51 717.618 38.94 715.618 39.83 715.403 42.26 714.524 44.48 714.524 46.7 711.636 48.48 710.083 50.69 708.101 52.24 707.204 55.35 705.642 58.67 705.876 60.45 702.099 63.32 700.995 65.77 694.561 73.96 693.907 75.29 693.907 77.95 691.468 78.62 689.905 79.52 686.802 84.39 683.481 87.7 682.388 90.15 680.368 91.26 679.05 93.24 677.058 94.58 675.722 97.47 671.075 102.12 668.849 105.66 665.97 107.43 663.313 110.1 661.538 110.76 660.435 113.86 654.216 118.51 652.011 119.19 652.226 114.98 653.337 113.2 654.45 112.76 654.899 107.67 657.769 101.68 660.435 95.25 661.538 93.69 663.099 88.83 664.192 87.26 665.091 84.6 666.194 83.5 669.298 77.06 670.177 73.75 678.386 59.56 680.817 53.58 682.595 52.03 682.817 50.46 683.921 48.69 686.372 46.04 687.034 43.39 687.69 38.72 686.595 34.07 685.034 31.42 680.163 26.98 672.179 26.09 661.763 27.86 658.657 29.41 653.122 31.18 649.794 33.18 647.577 34.07 645.802 35.62 643.37 36.06 639.153 39.61 632.28 42.7 625.185 47.8 618.087 51.13 614.993 53.8 608.56 57.78 599.247 67.32 597.929 71.3 598.144 72.42 598.583 73.08 603.024 75.08 605.251 76.62 614.769 70.86 618.311 63.32 623.407 59.34 628.073 54.47 631.618 52.9 632.28 51.8 633.169 48.69 637.601 48.92 639.153 46.48 643.136 45.14 650.009 41.16 659.321 38.94 663.099 36.06 665.755 36.51 667.962 35.83 670.401 38.28 667.745 45.14 665.306 48.48 662.864 53.58 661.323 54.91 660.884 57.78 658.657 61.54 657.106 65.32 654.001 69.1 654.001 71.53 652.011 73.31 652.897 75.08 649.794 78.62 646.69 85.71 644.259 90.15 640.481 98.35 638.704 100.11 636.946 103.67 635.376 108.76 633.833 111.43 633.833 115.42 631.401 119.19 629.186 130.04 633.394 139.36 638.929 143.79 640.706 144.01 645.362 142.68 651.122 138.24 653.561 136.03 654.001 133.82 656.227 133.59 656.882 132.93 657.546 130.49 658.657 131.37 661.089 130.72 665.755 126.28 667.073 125.62 668.401 124.06 668.194 122.51 670.177 122.51 673.944 117.86 674.628 114.31 676.835 114.31 679.05 112.97 680.817 110.99 681.052 108.54 682.595 109.21 683.921 107.43 684.37 104.33 687.251 104.55 688.13 102.34 691.019 97.47 696.563 90.37 697.667 87.26 698.114 86.82 699.657 87.49 699.003 89.92 697.45 93.69 697.45 97.68 696.339 100.11 695.45 104.11 695.685 108.11 695.235 111.65 696.788 115.86 698.114 121.62 700.546 123.84 702.099 126.51 703.21 127.84 705.202 129.16 712.515 131.16 715.618 130.94 723.598 127.84 735.568 117.86 737.348 115.42 737.568 112.97 739.118 113.2 739.998 111.65 740.448 108.54 744.008 107.67 750.658 97.02 750.868 94.36 753.538 93.24 757.508 86.16 758.838 84.6"></polyline>
                    <path d="M808.708,120.15 L806.278,122.13 L804.938,125.02 L800.728,128.35 L799.838,130.58 L798.068,130.58 L795.838,133.44 L793.408,134.33 L791.638,136.11 L787.198,137.21 L783.438,136.56 L780.998,136.56 L780.568,133.89 L778.998,129.89 L780.118,124.36 L778.788,122.81 L778.568,122.13 L778.998,121.25 L781.218,119.93 L781.888,117.04 L784.098,110.61 L789.858,104.63 L791.198,101.53 L793.858,100.65 L796.068,98.2 L798.068,97.76 L799.608,95.1 L800.948,95.1 L802.278,95.98 L808.918,93.99 L810.698,92.21 L813.138,91.12 L813.798,91.77 L813.798,92.44 L811.358,94.44 L808.918,97.54 L808.488,99.75 L808.918,101.31 L810.038,103.09 L812.468,105.52 L813.138,107.96 L812.258,112.83 L808.708,120.15 Z M950.978,105.3 L952.738,102.4 L954.508,98.43 L962.268,92.66 L966.478,91.12 L968.258,90 L971.368,89.55 L974.238,88.68 L975.138,89.11 L975.798,90.23 L972.028,93.1 L970.258,95.1 L968.498,95.53 L967.818,96.87 L966.278,97.76 L963.608,100.2 L961.828,101.09 L957.188,104.86 L953.188,106.63 L951.198,107.96 L950.308,107.73 L950.978,105.3 Z M1109.288,105.96 L1107.968,105.96 L1105.308,108.41 L1097.998,113.72 L1094.888,115.26 L1092.458,118.81 L1091.568,119.48 L1091.118,121.48 L1089.128,120.81 L1087.348,122.58 L1086.688,123.7 L1084.458,125.02 L1083.138,127.02 L1078.268,128.35 L1077.588,127.91 L1076.498,124.59 L1074.718,121.93 L1074.718,120.59 L1076.928,117.27 L1077.158,110.85 L1078.028,105.07 L1077.588,101.09 L1077.818,98.64 L1075.818,93.32 L1074.718,91.77 L1071.168,89.34 L1065.408,87.56 L1058.978,89.55 L1052.108,93.1 L1049.878,93.76 L1047.668,95.77 L1045.238,97.1 L1044.128,98.64 L1042.348,100.2 L1038.808,101.75 L1035.258,105.52 L1030.598,108.62 L1029.718,108.62 L1029.048,107.51 L1030.598,104.41 L1031.048,98.2 L1030.828,96.21 L1029.938,93.99 L1024.618,87.56 L1019.518,86.45 L1017.308,87.12 L1015.078,89.11 L1012.858,92.21 L1010.878,93.1 L1009.328,94.88 L1007.118,95.1 L1003.338,97.31 L1001.338,99.08 L996.268,103.81 L994.938,105.81 L988.848,110.89 L985.118,113.72 L983.338,115.71 L979.788,117.04 L977.798,119.48 L973.588,120.81 L972.708,121.69 L971.808,123.7 L969.158,124.14 L966.928,125.02 L964.948,127.69 L960.058,127.91 L955.198,130.13 L944.318,130.13 L943.658,129.45 L943.218,127.46 L944.548,121.04 L947.438,120.81 L949.638,118.6 L950.978,119.04 L952.308,117.93 L953.858,117.49 L954.078,115.26 L954.958,113.94 L956.958,114.17 L961.618,110.4 L964.048,109.28 L964.498,107.73 L966.478,106.41 L968.498,106.41 L970.928,102.85 L974.238,102.4 L976.468,100.65 L978.248,99.75 L979.788,97.76 L981.998,97.1 L985.998,93.76 L988.438,89.78 L989.098,86.9 L988.658,84.9 L986.448,82.25 L984.228,81.13 L979.348,80.24 L977.578,79.58 L970.928,80.02 L965.828,81.36 L963.838,80.92 L960.288,83.12 L954.758,85.34 L950.088,89.34 L947.878,90.44 L946.998,91.32 L946.318,95.1 L942.108,97.54 L941.218,98.64 L940.328,100.86 L937.458,105.73 L936.558,108.18 L935.678,109.07 L934.128,114.82 L931.688,117.27 L930.578,119.48 L930.188,121.42 L928.358,120.81 L926.588,122.58 L925.928,123.7 L923.718,125.02 L922.378,127.02 L917.518,128.35 L916.828,127.91 L915.738,124.59 L913.958,121.93 L913.958,120.59 L916.178,117.27 L916.388,110.85 L917.278,105.07 L916.828,101.09 L917.078,98.64 L915.078,93.32 L913.958,91.77 L910.408,89.34 L904.658,87.56 L898.228,89.55 L891.358,93.1 L889.138,93.76 L886.908,95.77 L884.478,97.1 L883.358,98.64 L881.598,100.2 L878.058,101.75 L874.498,105.52 L869.858,108.62 L868.958,108.62 L868.298,107.51 L869.858,104.41 L870.298,98.2 L870.068,96.21 L869.178,93.99 L863.868,87.56 L858.768,86.45 L856.548,87.12 L854.338,89.11 L852.108,92.21 L850.128,93.1 L848.568,94.88 L846.358,95.1 L842.578,97.31 L841.038,98.22 L838.878,100.63 L834.498,102.06 L830.048,105.58 L826.128,107.36 L826.208,106.85 L826.008,101.31 L825.108,97.76 L823.558,95.33 L822.448,92.88 L819.338,91.32 L820.898,89.11 L821.118,87.78 L820.678,85.57 L819.568,84.01 L816.468,82.02 L805.378,78.47 L802.498,79.8 L791.638,82.68 L785.878,84.9 L774.788,91.77 L772.578,92.44 L769.038,95.77 L764.368,99.31 L762.368,102.2 L759.938,102.85 L755.948,108.62 L756.388,111.05 L756.388,113.94 L757.058,114.82 L757.948,115.05 L759.278,114.82 L760.838,113.28 L762.168,110.85 L763.268,111.5 L764.148,111.05 L764.818,108.84 L766.578,108.41 L768.148,106.63 L769.038,107.96 L766.368,116.15 L766.368,120.37 L765.478,122.13 L765.258,127.91 L766.368,131.01 L768.798,135.44 L770.128,136.99 L774.338,140.54 L777.228,143.43 L779.878,144.09 L781.658,145.41 L784.098,144.75 L789.418,144.75 L791.198,143.43 L793.858,143.2 L802.048,138.99 L803.388,138.99 L807.608,134.99 L809.148,135.44 L817.568,127.91 L818.248,125.69 L820.018,123.47 L821.118,121.04 L824.738,119.04 L828.628,116.9 L832.158,113.37 L837.508,112.03 L841.778,109.68 L843.698,108.62 L845.238,107.07 L847.238,107.29 L849.228,104.41 L851.218,104.18 L854.548,101.31 L853.888,103.74 L850.568,109.96 L850.128,112.83 L847.908,113.28 L845.468,116.38 L843.698,117.93 L843.028,120.37 L841.028,121.48 L839.488,123.47 L838.158,132.78 L839.038,136.77 L840.588,139.2 L843.698,140.77 L845.918,141.42 L847.458,138.99 L849.678,136.77 L851.458,135.88 L852.998,135.67 L853.668,133.89 L856.548,133.22 L858.988,128.56 L859.668,128.56 L861.198,129.89 L863.628,127.46 L865.408,126.36 L865.858,123.91 L866.308,123.02 L868.518,122.13 L872.078,119.7 L882.488,110.85 L883.158,109.72 L885.378,108.18 L889.788,106.41 L897.548,101.96 L898.438,102.2 L899.328,103.29 L899.988,109.96 L899.778,117.49 L899.118,118.6 L899.778,120.37 L899.778,122.37 L900.878,125.25 L900.218,128.56 L901.328,131.67 L905.758,138.1 L908.868,139.43 L912.408,141.42 L915.078,141.21 L918.168,141.42 L921.058,139.43 L923.718,138.33 L925.488,135.67 L928.148,135.44 L929.038,133.01 L934.188,128.68 L935.908,134.33 L937.898,134.12 L939.238,137.43 L944.998,140.54 L946.318,140.97 L949.868,140.54 L952.528,139.88 L954.508,141.21 L955.638,141.42 L958.068,140.97 L965.828,138.1 L967.818,137.65 L974.038,133.89 L978.688,132.56 L980.668,129.45 L983.338,129.24 L984.878,127.91 L987.988,126.13 L988.888,124.8 L989.328,123.02 L990.658,122.58 L991.688,122.91 L993.448,121.59 L996.628,115.48 L998.388,114.82 L1001.798,111.19 L1003.348,110.54 L1005.938,107.96 L1006.528,107.12 L1007.998,107.29 L1009.988,104.41 L1011.988,104.18 L1015.318,101.31 L1014.638,103.74 L1011.328,109.96 L1010.878,112.83 L1008.648,113.28 L1006.218,116.38 L1004.438,117.93 L1003.778,120.37 L1001.788,121.48 L1000.238,123.47 L998.908,132.78 L999.798,136.77 L1001.338,139.2 L1004.438,140.77 L1006.668,141.42 L1008.208,138.99 L1010.428,136.77 L1012.198,135.88 L1013.758,135.67 L1014.428,133.89 L1017.308,133.22 L1019.738,128.56 L1020.408,128.56 L1021.958,129.89 L1024.398,127.46 L1026.158,126.36 L1026.598,123.91 L1027.048,123.02 L1029.278,122.13 L1032.828,119.7 L1043.238,110.85 L1043.898,109.72 L1046.128,108.18 L1050.558,106.41 L1058.298,101.96 L1059.198,102.2 L1060.078,103.29 L1060.758,109.96 L1060.518,117.49 L1059.868,118.6 L1060.518,120.37 L1060.518,122.37 L1061.638,125.25 L1060.968,128.56 L1062.078,131.67 L1066.508,138.1 L1069.608,139.43 L1073.168,141.42 L1075.818,141.21 L1078.928,141.42 L1081.808,139.43 L1084.458,138.33 L1086.238,135.67 L1088.898,135.44 L1089.788,133.01 L1096.658,127.24 L1098.878,126.57 L1101.758,123.02 L1106.628,118.37 L1109.288,115.05 L1109.518,109.28 L1109.968,106.85 L1109.288,105.96 L1109.288,105.96 Z" id="Fill-29"></path>
                </g>
                <rect id="Rectangle" fill="#07284A" x="1" y="2442" width="1672" height="313"></rect>
                <text id="Klassiek-met-Stijl" font-family="GreatVibes-Regular, Great Vibes" font-size="220" font-weight="normal" fill="#FCE1AF">
                    <tspan x="143" y="2653">Klassiek met Stijl</tspan>
                </text>
            </g>
        </g>
    </g>
</svg>