<?xml version="1.0" encoding="UTF-8"?>
<svg width="1423px" height="1170px" viewBox="0 0 1423 1170" version="1.1" xmlns="http://www.w3.org/2000/svg" xmlns:xlink="http://www.w3.org/1999/xlink">
    <title>hetArendshuys-smallLogo</title>
    <g id="Page-1" stroke="none" stroke-width="1" fill="none" fill-rule="evenodd">
        <g id="Artboard" transform="translate(-1137.000000, -1239.000000)">
            <g id="Group-Copy" transform="translate(1012.000000, 0.000000)">
                <g id="hetArendshuys-smallLogo" transform="translate(125.621000, 1239.540000)">
                    <polygon id="Fill-3" fill="#FCE1AF" points="-1.13686838e-13 1168.43 1421.209 1168.43 1421.209 1.13686838e-13 -1.13686838e-13 1.13686838e-13"></polygon>
                    <polygon id="Fill-6" fill="#07284A" points="652.231 141.26 673.428 141.26 673.428 413.85 652.231 413.85 652.231 269.82 638.085 269.82 638.085 413.85 616.888 413.85 616.888 141.26 638.085 141.26 638.085 249.62 652.231 249.62"></polygon>
                    <polyline id="Fill-7" fill="#07284A" points="712.942 161.45 712.942 249.62 734.15 249.62 734.15 269.82 712.942 269.82 712.942 393.66 734.15 393.66 734.15 413.85 691.745 413.85 691.745 141.26 734.15 141.26 734.15 161.45 712.942 161.45"></polyline>
                    <polyline id="Fill-8" fill="#07284A" points="764.079 161.45 743.882 161.45 743.882 141.26 805.482 141.26 805.482 161.45 785.284 161.45 785.284 413.85 764.079 413.85 764.079 161.45"></polyline>
                    <path d="M160.007,650.71 L160.007,512.85 C160.007,507.81 157.763,503.89 152.714,503.89 L150.47,503.89 C145.43,503.89 143.186,507.25 143.186,512.85 L143.186,650.71 L160.007,650.71 Z M107.88,502.76 C107.88,480.9 123.58,470.25 144.87,470.25 L157.202,470.25 C175.127,470.25 195.303,480.35 195.303,502.76 L195.303,924.2 L160.007,924.2 L160.007,684.35 L143.186,684.35 L143.186,924.2 L107.88,924.2 L107.88,502.76 L107.88,502.76 Z" id="Fill-9" fill="#07284A"></path>
                    <path d="M276.976,503.89 L267.439,503.89 L267.439,651.83 L278.08,651.83 C283.68,651.83 288.169,647.34 288.169,639.52 L288.169,518.46 C288.169,510.05 283.68,503.89 276.976,503.89 Z M288.169,699.48 C288.169,691.63 283.68,685.47 276.976,685.47 L267.439,685.47 L267.439,924.2 L232.143,924.2 L232.143,470.25 L279.762,470.25 C310.59,470.25 323.493,491.55 323.493,516.22 L323.493,636.15 C323.493,654.08 316.2,664.17 304.428,668.65 C316.2,673.13 323.493,687.15 323.493,702.28 L323.493,924.2 L288.169,924.2 L288.169,699.48 L288.169,699.48 Z" id="Fill-10" fill="#07284A"></path>
                    <polyline id="Fill-11" fill="#07284A" points="391.814 503.89 391.814 650.71 427.138 650.71 427.138 684.35 391.814 684.35 391.814 890.59 427.138 890.59 427.138 924.2 356.517 924.2 356.517 470.25 427.138 470.25 427.138 503.89 391.814 503.89"></polyline>
                    <polyline id="Fill-12" fill="#07284A" points="488.016 636.15 488.016 924.2 453.272 924.2 453.272 470.25 489.138 470.25 535.094 725.82 535.094 470.25 570.39 470.25 570.39 924.2 542.938 924.2 488.016 636.15"></polyline>
                    <path d="M643.321,503.89 L641.077,503.89 L641.077,890.59 L643.321,890.59 C655.653,890.59 660.122,882.74 660.122,871.53 L660.122,522.95 C660.122,511.73 654.532,503.89 643.321,503.89 Z M605.771,470.25 L649.492,470.25 C679.188,470.25 695.448,489.87 695.448,513.97 L695.448,880.5 C695.448,906.27 680.3,924.2 649.492,924.2 L605.771,924.2 L605.771,470.25 L605.771,470.25 Z" id="Fill-13" fill="#07284A"></path>
                    <path d="M774.271,926.44 L770.903,926.44 C743.435,926.44 726.632,908.52 726.632,882.74 L726.632,823.34 L759.132,823.34 L759.132,879.37 C759.132,887.23 764.733,892.26 772.026,892.26 C779.88,892.26 785.482,887.23 785.482,879.37 L785.482,700.6 C785.482,688.83 782.677,680.99 770.903,675.37 L745.116,663.05 C732.241,656.88 726.632,645.12 726.632,629.42 L726.632,510.61 C726.632,483.71 741.751,468.01 770.903,468.01 L773.148,468.01 C801.181,468.01 817.982,484.27 817.982,510.61 L817.982,558.8 L782.677,558.8 L782.677,512.29 C782.677,505.01 778.198,501.65 772.587,501.65 C766.978,501.65 762.489,505.01 762.489,512.29 L762.489,614.86 C762.489,629.98 765.855,636.15 777.636,641.19 L798.937,650.71 C812.372,656.88 817.982,668.09 817.982,684.91 L817.982,883.3 C817.982,906.84 802.302,926.44 774.271,926.44" id="Fill-14" fill="#07284A"></path>
                    <polyline id="Fill-15" fill="#07284A" points="909.419 650.71 909.419 470.25 944.719 470.25 944.719 924.2 909.419 924.2 909.419 684.35 885.869 684.35 885.869 924.2 850.567 924.2 850.567 470.25 885.869 470.25 885.869 650.71 909.419 650.71"></polyline>
                    <path d="M1027.059,927.57 L1024.829,927.57 C995.679,927.57 980.539,909.08 980.539,884.42 L980.539,470.25 L1015.859,470.25 L1015.859,880.5 C1015.859,889.47 1020.349,893.94 1025.939,893.94 C1033.219,893.94 1036.589,888.91 1036.589,880.5 L1036.589,470.25 L1071.889,470.25 L1071.889,884.99 C1071.889,908.52 1058.439,927.57 1027.059,927.57" id="Fill-16" fill="#07284A"></path>
                    <polyline id="Fill-17" fill="#07284A" points="1204.949 470.25 1169.089 633.91 1169.089 924.2 1134.339 924.2 1134.339 633.91 1097.919 470.25 1133.219 470.25 1151.149 579.54 1170.209 470.25 1204.949 470.25"></polyline>
                    <path d="M1269.639,926.44 L1266.269,926.44 C1238.799,926.44 1221.999,908.52 1221.999,882.74 L1221.999,823.34 L1254.499,823.34 L1254.499,879.37 C1254.499,887.23 1260.099,892.26 1267.389,892.26 C1275.239,892.26 1280.849,887.23 1280.849,879.37 L1280.849,700.6 C1280.849,688.83 1278.039,680.99 1266.269,675.37 L1240.479,663.05 C1227.609,656.88 1221.999,645.12 1221.999,629.42 L1221.999,510.61 C1221.999,483.71 1237.119,468.01 1266.269,468.01 L1268.519,468.01 C1296.549,468.01 1313.349,484.27 1313.349,510.61 L1313.349,558.8 L1278.039,558.8 L1278.039,512.29 C1278.039,505.01 1273.559,501.65 1267.959,501.65 C1262.339,501.65 1257.869,505.01 1257.869,512.29 L1257.869,614.86 C1257.869,629.98 1261.219,636.15 1272.999,641.19 L1294.299,650.71 C1307.739,656.88 1313.349,668.09 1313.349,684.91 L1313.349,883.3 C1313.349,906.84 1297.669,926.44 1269.639,926.44" id="Fill-18" fill="#07284A"></path>
                    <path d="M710.612,1079.2 C787.735,1079.2 860.571,1060.81 924.969,1028.19 L496.254,1028.19 C560.667,1060.81 633.475,1079.2 710.612,1079.2" id="Fill-19" fill="#F3B237"></path>
                </g>
            </g>
        </g>
    </g>
</svg>