<?xml version="1.0" encoding="UTF-8"?>
<svg width="1673px" height="2821px" viewBox="0 0 1673 2821" version="1.1" xmlns="http://www.w3.org/2000/svg" xmlns:xlink="http://www.w3.org/1999/xlink">
    <title>Group Copy</title>
    <defs>
        <polygon id="path-1" points="0.06 0.53 1672.45 0.53 1672.45 2820.94 0.06 2820.94"></polygon>
    </defs>
    <g id="Page-1" stroke="none" stroke-width="1" fill="none" fill-rule="evenodd">
        <g id="Artboard" transform="translate(-1012.000000, 0.000000)">
            <g id="Group-Copy" transform="translate(1012.000000, 0.000000)">
                <g id="Group-5">
                    <mask id="mask-2" fill="white">
                        <use xlink:href="#path-1"></use>
                    </mask>
                    <g id="Clip-2"></g>
                    <polygon id="Fill-1" fill="#07284A" mask="url(#mask-2)" points="0.06 2820.94 1672.44 2820.94 1672.44 0.53 0.06 0.53"></polygon>
                    <path d="M1590.67,314.644 C1582.7,315.87 1575.04,317.188 1567.61,318.595 C1333.75,362.648 1361.69,494.612 1405.92,642.911 C1445.33,775.042 1497.74,920.215 1389.16,1027.5 C1253.43,1161.6 721.007,1098.13 779.371,621.397 C794.179,500.441 953.849,477.926 1046.54,493.859 C1074.76,390.31 1004.47,249.795 914.94,255.161 C766.491,264.047 719.316,177.593 639.161,136.607 C605.431,119.372 565.916,110.124 510.49,119.511 C322.138,151.41 232.79,260.081 185.023,400.227 C184.953,400.436 184.896,400.652 184.804,400.861 C128.454,566.82 130.252,776.784 95.331,955.818 C88.167,1044.32 47.106,1048.95 0.004,1039.59 L0.004,1924.65 C39.683,1974.46 84.09,2045.88 125.621,2120.01 L125.621,1239.54 L168.614,1239.54 C181.629,993.239 224.28,614.373 257.202,472.38 C258.168,468.198 259.142,464.149 260.095,460.379 C303.933,287.116 518.687,169.899 681.659,277.254 C681.659,277.254 449.695,356.077 603.174,398.282 C691.243,422.493 861.136,286.767 921.593,398.282 C921.593,398.282 657.605,435.631 605.205,555.105 C734.186,590.941 672.972,700.301 704.024,829.792 C745.772,1003.88 869.89,1112.26 893.929,1148.78 C912.288,1176.73 921.298,1196.43 913.552,1206.94 C909.257,1212.76 884.845,1196.05 858.864,1183.43 C833.593,1171.16 806.859,1162.76 795.758,1182.77 C789.867,1193.42 796.06,1211.81 807.755,1233.93 C808.729,1235.77 809.745,1237.64 810.792,1239.54 L1546.83,1239.54 L1546.83,1337.16 C1588.06,1358.03 1628.4,1376.69 1651.14,1358.05 C1670.55,1342.13 1566.27,1175.52 1595.03,1147.1 C1608.96,1133.34 1638.69,1144.52 1672.45,1163 L1672.45,305.848 C1645.88,307.471 1618.63,310.37 1590.67,314.644" id="Fill-4" fill="#354768" mask="url(#mask-2)"></path>
                </g>
                <g id="hetArendshuys-smallLogo" transform="translate(125.621000, 1239.540000)">
                    <polygon id="Fill-3" fill="#FCE1AF" points="-1.13686838e-13 1168.43 1421.209 1168.43 1421.209 1.13686838e-13 -1.13686838e-13 1.13686838e-13"></polygon>
                    <polygon id="Fill-6" fill="#07284A" points="652.231 141.26 673.428 141.26 673.428 413.85 652.231 413.85 652.231 269.82 638.085 269.82 638.085 413.85 616.888 413.85 616.888 141.26 638.085 141.26 638.085 249.62 652.231 249.62"></polygon>
                    <polyline id="Fill-7" fill="#07284A" points="712.942 161.45 712.942 249.62 734.15 249.62 734.15 269.82 712.942 269.82 712.942 393.66 734.15 393.66 734.15 413.85 691.745 413.85 691.745 141.26 734.15 141.26 734.15 161.45 712.942 161.45"></polyline>
                    <polyline id="Fill-8" fill="#07284A" points="764.079 161.45 743.882 161.45 743.882 141.26 805.482 141.26 805.482 161.45 785.284 161.45 785.284 413.85 764.079 413.85 764.079 161.45"></polyline>
                    <path d="M160.007,650.71 L160.007,512.85 C160.007,507.81 157.763,503.89 152.714,503.89 L150.47,503.89 C145.43,503.89 143.186,507.25 143.186,512.85 L143.186,650.71 L160.007,650.71 Z M107.88,502.76 C107.88,480.9 123.58,470.25 144.87,470.25 L157.202,470.25 C175.127,470.25 195.303,480.35 195.303,502.76 L195.303,924.2 L160.007,924.2 L160.007,684.35 L143.186,684.35 L143.186,924.2 L107.88,924.2 L107.88,502.76 L107.88,502.76 Z" id="Fill-9" fill="#07284A"></path>
                    <path d="M276.976,503.89 L267.439,503.89 L267.439,651.83 L278.08,651.83 C283.68,651.83 288.169,647.34 288.169,639.52 L288.169,518.46 C288.169,510.05 283.68,503.89 276.976,503.89 Z M288.169,699.48 C288.169,691.63 283.68,685.47 276.976,685.47 L267.439,685.47 L267.439,924.2 L232.143,924.2 L232.143,470.25 L279.762,470.25 C310.59,470.25 323.493,491.55 323.493,516.22 L323.493,636.15 C323.493,654.08 316.2,664.17 304.428,668.65 C316.2,673.13 323.493,687.15 323.493,702.28 L323.493,924.2 L288.169,924.2 L288.169,699.48 L288.169,699.48 Z" id="Fill-10" fill="#07284A"></path>
                    <polyline id="Fill-11" fill="#07284A" points="391.814 503.89 391.814 650.71 427.138 650.71 427.138 684.35 391.814 684.35 391.814 890.59 427.138 890.59 427.138 924.2 356.517 924.2 356.517 470.25 427.138 470.25 427.138 503.89 391.814 503.89"></polyline>
                    <polyline id="Fill-12" fill="#07284A" points="488.016 636.15 488.016 924.2 453.272 924.2 453.272 470.25 489.138 470.25 535.094 725.82 535.094 470.25 570.39 470.25 570.39 924.2 542.938 924.2 488.016 636.15"></polyline>
                    <path d="M643.321,503.89 L641.077,503.89 L641.077,890.59 L643.321,890.59 C655.653,890.59 660.122,882.74 660.122,871.53 L660.122,522.95 C660.122,511.73 654.532,503.89 643.321,503.89 Z M605.771,470.25 L649.492,470.25 C679.188,470.25 695.448,489.87 695.448,513.97 L695.448,880.5 C695.448,906.27 680.3,924.2 649.492,924.2 L605.771,924.2 L605.771,470.25 L605.771,470.25 Z" id="Fill-13" fill="#07284A"></path>
                    <path d="M774.271,926.44 L770.903,926.44 C743.435,926.44 726.632,908.52 726.632,882.74 L726.632,823.34 L759.132,823.34 L759.132,879.37 C759.132,887.23 764.733,892.26 772.026,892.26 C779.88,892.26 785.482,887.23 785.482,879.37 L785.482,700.6 C785.482,688.83 782.677,680.99 770.903,675.37 L745.116,663.05 C732.241,656.88 726.632,645.12 726.632,629.42 L726.632,510.61 C726.632,483.71 741.751,468.01 770.903,468.01 L773.148,468.01 C801.181,468.01 817.982,484.27 817.982,510.61 L817.982,558.8 L782.677,558.8 L782.677,512.29 C782.677,505.01 778.198,501.65 772.587,501.65 C766.978,501.65 762.489,505.01 762.489,512.29 L762.489,614.86 C762.489,629.98 765.855,636.15 777.636,641.19 L798.937,650.71 C812.372,656.88 817.982,668.09 817.982,684.91 L817.982,883.3 C817.982,906.84 802.302,926.44 774.271,926.44" id="Fill-14" fill="#07284A"></path>
                    <polyline id="Fill-15" fill="#07284A" points="909.419 650.71 909.419 470.25 944.719 470.25 944.719 924.2 909.419 924.2 909.419 684.35 885.869 684.35 885.869 924.2 850.567 924.2 850.567 470.25 885.869 470.25 885.869 650.71 909.419 650.71"></polyline>
                    <path d="M1027.059,927.57 L1024.829,927.57 C995.679,927.57 980.539,909.08 980.539,884.42 L980.539,470.25 L1015.859,470.25 L1015.859,880.5 C1015.859,889.47 1020.349,893.94 1025.939,893.94 C1033.219,893.94 1036.589,888.91 1036.589,880.5 L1036.589,470.25 L1071.889,470.25 L1071.889,884.99 C1071.889,908.52 1058.439,927.57 1027.059,927.57" id="Fill-16" fill="#07284A"></path>
                    <polyline id="Fill-17" fill="#07284A" points="1204.949 470.25 1169.089 633.91 1169.089 924.2 1134.339 924.2 1134.339 633.91 1097.919 470.25 1133.219 470.25 1151.149 579.54 1170.209 470.25 1204.949 470.25"></polyline>
                    <path d="M1269.639,926.44 L1266.269,926.44 C1238.799,926.44 1221.999,908.52 1221.999,882.74 L1221.999,823.34 L1254.499,823.34 L1254.499,879.37 C1254.499,887.23 1260.099,892.26 1267.389,892.26 C1275.239,892.26 1280.849,887.23 1280.849,879.37 L1280.849,700.6 C1280.849,688.83 1278.039,680.99 1266.269,675.37 L1240.479,663.05 C1227.609,656.88 1221.999,645.12 1221.999,629.42 L1221.999,510.61 C1221.999,483.71 1237.119,468.01 1266.269,468.01 L1268.519,468.01 C1296.549,468.01 1313.349,484.27 1313.349,510.61 L1313.349,558.8 L1278.039,558.8 L1278.039,512.29 C1278.039,505.01 1273.559,501.65 1267.959,501.65 C1262.339,501.65 1257.869,505.01 1257.869,512.29 L1257.869,614.86 C1257.869,629.98 1261.219,636.15 1272.999,641.19 L1294.299,650.71 C1307.739,656.88 1313.349,668.09 1313.349,684.91 L1313.349,883.3 C1313.349,906.84 1297.669,926.44 1269.639,926.44" id="Fill-18" fill="#07284A"></path>
                    <path d="M710.612,1079.2 C787.735,1079.2 860.571,1060.81 924.969,1028.19 L496.254,1028.19 C560.667,1060.81 633.475,1079.2 710.612,1079.2" id="Fill-19" fill="#F3B237"></path>
                </g>
                <g id="stijlvol-wonen" transform="translate(281.252000, 2495.440000)" fill="#FCE1AF">
                    <polyline id="Fill-20" points="169.348 53.74 170.012 53.36 167.498 53.73 168.301 53.92 169.348 53.74"></polyline>
                    <polyline id="Fill-21" points="172.79 64.86 172.957 64.85 172.957 64.78 172.79 64.86"></polyline>
                    <polyline id="Fill-22" points="222.934 54.53 227.141 56.31 228.254 56.08 232.471 53.2 233.565 45.68 232.911 43.68 231.133 41.46 228.469 39.69 226.038 38.8 221.157 40.79 220.269 41.9 219.381 46.33 220.502 52.55 222.934 54.53"></polyline>
                    <path d="M243.785,170.02 L237.352,186.41 L236.257,188.42 L234.032,193.97 L233.144,195.51 L232.705,198.18 L231.601,201.27 L232.48,202.82 L231.601,203.27 L230.274,205.25 L224.495,217.02 L224.729,219.68 L223.167,219.89 L221.176,222.33 L216.968,224.78 L214.977,226.32 L214.08,224.1 L213.201,219.68 L213.415,217.24 L214.977,214.14 L214.977,210.14 L216.735,205.7 L217.417,202.6 L220.737,196.18 L224.729,187.3 L230.713,179.99 L232.48,177.11 L234.92,175.57 L242.448,168.46 L244.448,166.92 L243.785,170.02 Z M152.575,67.44 L154.165,67.53 L150.901,68 L152.575,67.44 Z M159.222,66.78 L159.447,66.78 L159.045,66.84 L159.222,66.78 Z M164.496,65.85 L165.356,65.94 L164.028,66.12 L164.496,65.85 Z M306.075,150.51 L304.082,148.97 L296.986,146.97 L276.37,149.18 L274.592,149.85 L265.29,152.07 L266.618,146.53 L268.16,145.41 L268.842,138.77 L271.713,132.56 L273.49,125.25 L276.809,115.49 L277.473,110.85 L278.585,108.84 L279.034,106.41 L280.127,104.63 L281.016,97.1 L284.569,86 L283.242,81.13 L279.034,77.14 L275.92,76.04 L275.032,76.26 L273.705,77.14 L272.386,78.7 L269.497,80.47 L264.176,85.57 L261.082,87.56 L258.641,88.45 L253.537,92.66 L251.76,95.1 L247.543,98.2 L245.561,100.42 L242.681,101.96 L240.905,104.41 L239.474,105.66 L238.894,105.52 L222.27,118.15 L216.95,120.59 L215.388,121.93 L213.182,123.02 L211.62,124.8 L208.526,124.8 L206.758,125.25 L206.524,124.59 L207.647,123.02 L207.852,118.15 L209.189,116.15 L208.526,113.05 L209.853,111.73 L210.741,109.51 L212.293,107.96 L215.837,96.87 L216.725,91.99 L215.837,88.45 L213.63,85.79 L210.078,82.68 L206.963,81.8 L205.87,82.02 L202.317,83.8 L198.549,86.23 L196.332,88.45 L194.108,89.78 L192.78,91.77 L189.46,91.99 L186.141,94.88 L181.251,97.76 L178.821,101.09 L176.156,103.09 L174.613,103.09 L174.426,103.33 L174.239,103.29 L171.574,106.18 L162.925,113.05 L161.831,115.05 L159.381,115.05 L157.623,115.94 L155.847,118.15 L153.182,119.26 L151.406,120.59 L149.19,121.48 L141.429,126.13 L138.989,126.13 L135.23,127.91 L129.247,127.91 L126.581,127.02 L126.132,124.59 L126.132,122.81 L126.806,121.25 L126.581,118.6 L128.133,117.27 L128.797,114.61 L130.574,111.94 L130.574,108.62 L134.118,105.52 L134.567,103.29 L135.894,101.96 L137.212,99.75 L138.334,99.08 L138.989,97.1 L140.55,94.88 L142.991,89.11 L145.862,86.45 L147.637,82.68 L150.302,81.36 L153.846,74.71 L156.053,73.6 L156.735,70.94 L158.278,70.05 L159.166,67.61 L161.597,67.61 L162.954,66.78 L164.542,66.78 L168.395,66.27 L168.469,66.29 L168.536,66.26 L170.76,65.97 L172.79,64.86 L171.807,65.02 L173.125,64.52 L176.904,64.28 L172.957,64.85 L172.957,65 L175.173,64.56 L180.718,64.78 L190.031,62.57 L192.471,62.79 L195.323,62.53 L198.875,62.97 L208.862,63.4 L210.844,62.97 L211.956,61.85 L212.396,60.31 L211.733,56.31 L209.956,53.44 L207.525,50.32 L203.083,49 L201.307,49.23 L198.436,48.78 L195.118,49.67 L193.117,49.88 L188.9,51.66 L191.143,49.93 L181.158,51.93 L179.848,51.93 L180.223,51.87 L179.764,51.93 L178.493,51.93 L176.735,51.26 L174.781,52.51 L170.686,52.99 L170.012,53.36 L174.454,52.71 L174.286,52.81 L169.348,53.74 L168.704,54.09 L167.367,54.09 L167.254,53.77 L167.498,53.73 L167.226,53.67 L167.142,53.44 L167.367,52.1 L168.909,50.32 L172.247,47.88 L172.686,47.22 L173.575,43.24 L172.023,38.12 L169.592,35.25 L167.367,34.36 L165.59,36.14 L163.373,39.01 L159.381,45.88 L156.053,48.77 L152.518,53.2 L147.198,56.08 L139.438,57.64 L136.343,59.19 L129.686,61.19 L124.59,60.74 L123.916,61.19 L121.925,63.83 L120.373,62.52 L117.932,64.28 L114.614,69.61 L114.389,70.94 L114.838,72.93 L115.941,74.03 L117.278,74.71 L119.924,74.48 L122.15,74.93 L125.245,73.16 L130.79,72.28 L133.454,71.39 L137.006,71.39 L138.334,70.94 L140.766,70.71 L140.327,72.28 L138.549,73.37 L135.894,78.7 L133.454,81.13 L131.023,84.69 L129.247,86.68 L128.358,90.23 L129.911,91.77 L129.022,93.32 L126.357,92.66 L125.478,95.1 L122.935,100 L121.028,100.65 L94.651,113.72 L95.09,111.73 L97.316,109.96 L100.411,105.07 L101.748,103.53 L101.075,100.86 L102.412,99.53 L103.299,95.77 L103.524,93.55 L101.524,86.45 L99.298,83.56 L97.316,81.58 L90.659,78.47 L90.219,78.47 L86.675,80.69 L86.236,79.8 L86.89,77.14 L86.442,76.04 L85.553,75.6 L82.458,75.6 L75.362,73.37 L74.698,73.6 L73.585,74.71 L70.266,72.28 L64.282,71.6 L59.635,69.61 L57.41,70.5 L54.979,69.39 L52.314,70.05 L48.555,68.28 L46.779,68.72 L43.665,67.84 L41.234,68.5 L39.672,68.05 L38.354,68.95 L36.129,66.95 L34.811,66.95 L33.034,68.5 L32.371,68.5 L31.473,66.72 L26.386,64.72 L23.936,64.52 L21.505,62.96 L18.177,61.85 L17.728,60.96 L17.513,58.97 L21.505,53.44 L22.161,51.21 L24.825,49.88 L25.938,47.66 L30.594,44.34 L33.034,42.12 L35.016,41.68 L36.578,39.24 L39.018,39.46 L41.234,36.36 L43.665,35.92 L46.331,34.15 L48.106,33.91 L49.424,32.59 L53.651,31.48 L55.858,29.93 L56.082,27.72 L57.185,26.15 L58.747,26.6 L61.178,28.15 L65.825,25.71 L68.714,24.61 L70.715,23.28 L72.257,23.51 L80.692,20.4 L84.235,20.4 L91.538,18.4 L105.516,16.85 L111.499,17.74 L113.715,17.74 L118.138,19.28 L125.459,20.4 L128.124,20.4 L129.676,23.28 L131.883,24.83 L134.323,28.15 L135.661,29.27 L136.54,32.14 L134.108,33.03 L132.331,34.6 L131.229,36.36 L130.79,37.92 L131.229,39.24 L133.883,42.12 L136.325,43.24 L137.427,43.01 L141.206,41.01 L142.524,39.24 L144.084,36.58 L144.084,27.49 L142.757,20.4 L141.645,18.63 L141.645,16.19 L141.206,15.52 L139.204,14.63 L138.755,13.09 L136.54,10.87 L134.323,7.11 L132.771,6.87 L130.555,8 L129.452,5.99 L128.124,4.66 L127.236,4.22 L123.683,3.99 L122.355,2 L121.476,1.78 L120.364,2.67 L118.587,3.11 L117.25,1.56 L116.362,1.33 L111.949,2 L107.947,-2.55795385e-13 L106.62,-2.55795385e-13 L105.731,1.12 L105.516,2.44 L103.076,1.33 L98.859,0.68 L93.987,1.78 L90.219,1.78 L87.554,2.44 L86.002,1.56 L84.459,1.78 L82.683,2.88 L80.907,4.66 L78.027,4.22 L71.155,7.11 L63.842,8.2 L62.505,8.86 L60.963,10.64 L58.082,10.64 L55.858,12.64 L52.081,13.3 L50.538,15.75 L48.322,16.19 L45.891,17.08 L36.354,21.74 L29.92,26.6 L28.827,28.38 L27.05,29.27 L22.842,32.14 L17.289,37.92 L16.41,39.46 L13.745,41.46 L12.642,44.34 L10.416,46.33 L7.976,50.77 L7.097,52.99 L6.209,59.86 L6.658,63.39 L9.538,67.39 L15.288,71.39 L18.401,71.6 L19.729,72.71 L21.955,73.37 L23.712,74.48 L30.809,75.81 L33.473,77.14 L36.578,76.49 L37.456,77.81 L39.672,78.47 L44.338,78.47 L45.666,79.36 L48.106,80.02 L48.985,81.13 L51.426,81.36 L54.09,82.25 L55.633,82.25 L65.385,85.13 L66.713,84.9 L68.938,86.9 L72.257,88.68 L74.698,89.55 L77.363,90 L78.681,91.56 L81.794,94.21 L82.683,97.1 L84.01,99.08 L82.458,100.86 L80.907,105.52 L78.915,107.51 L73.585,115.05 L70.93,117.72 L65.825,121.69 L64.731,123.02 L62.066,123.47 L59.186,125.69 L56.746,125.69 L53.202,127.46 L48.761,128.56 L46.331,130.13 L41,132.34 L38.129,134.55 L35.016,135.22 L31.921,137.21 L29.481,137.65 L24.161,140.32 L21.066,140.97 L18.625,142.75 L14.4,143.64 L12.193,145.64 L4.881,148.73 L1.777,150.96 L0.225,153.17 L-9.66338121e-13,154.51 L1.113,157.16 L5.096,159.61 L7.976,159.38 L10.641,160.05 L22.842,157.38 L26.162,156.94 L31.034,155.4 L35.25,154.51 L41.234,151.4 L48.555,148.97 L53.651,145.41 L55.858,144.97 L59.84,141.86 L64.936,139.43 L75.586,132.12 L79.803,130.78 L85.553,126.8 L87.779,126.13 L89.106,124.8 L96.204,122.58 L101.299,119.26 L103.955,118.81 L109.284,116.38 L111.266,114.82 L116.362,113.49 L117.484,111.73 L118.045,111.73 L118.166,114.82 L117.053,116.6 L116.83,117.49 L117.717,122.58 L117.717,125.02 L118.606,127.02 L119.055,129.89 L124.356,136.99 L127.469,138.77 L130.574,141.21 L133.893,140.1 L137.895,139.88 L139.653,139.2 L144.319,138.54 L147.637,135.88 L149.863,135.22 L153.622,133.22 L156.287,132.56 L159.166,129.45 L160.943,129.69 L161.831,128.8 L162.925,126.57 L165.366,124.8 L167.59,122.13 L172.023,118.15 L173.35,115.94 L175.959,113.98 L176.156,113.94 L179.475,110.85 L180.812,108.18 L186.581,105.96 L187.469,102.85 L188.573,102.4 L190.124,103.09 L192.125,101.75 L193.902,101.31 L195.66,99.75 L197.221,100.2 L199.437,98.64 L200.54,98.87 L200.98,99.97 L199.204,103.53 L198.549,106.41 L196.997,108.62 L195.445,113.72 L194.556,114.61 L193.902,117.93 L192.331,123.25 L192.125,125.25 L192.565,128.56 L193.668,131.89 L194.108,137.43 L196.332,139.43 L200.326,141.42 L202.541,140.97 L204.982,140.97 L207.413,138.99 L209.853,138.77 L211.62,138.1 L214.724,135.44 L217.614,134.55 L218.932,133.01 L221.821,131.23 L227.356,126.36 L230.246,124.36 L234.238,121.04 L237.567,117.27 L240.11,111.78 L240.241,112.17 L242.008,113.94 L243.569,114.61 L244.897,114.17 L246,113.28 L246.45,111.05 L251.545,107.96 L252.208,105.96 L255.538,103.53 L257.081,101.09 L266.178,95.33 L266.178,97.76 L263.953,107.73 L261.522,114.17 L260.194,116.83 L260.418,119.93 L257.081,129.69 L257.081,132.12 L255.752,133.67 L255.303,135.88 L253.761,139.43 L253.322,143.2 L251.545,147.19 L249.114,155.17 L246.45,156.94 L242.896,160.5 L236.257,165.14 L230.479,170.9 L227.824,174.01 L224.29,180.43 L221.176,182.21 L218.959,185.54 L216.735,188.19 L214.08,193.29 L212.527,198.83 L210.545,201.5 L210.096,203.94 L208.543,207.27 L207.88,210.58 L205.44,218.11 L205.44,227.21 L205.879,232.09 L206.992,233.86 L208.095,236.52 L209.862,238.07 L211.639,240.5 L214.977,242.06 L216.735,241.39 L224.055,235.86 L227.16,232.54 L232.032,224.98 L232.929,222.78 L235.575,220.34 L236.913,216.13 L238.689,214.14 L239.352,211.69 L240.465,210.81 L241.792,206.14 L243.129,205.05 L245.112,199.06 L247.337,195.29 L247.992,192.63 L249.553,191.08 L251.096,186.65 L253.097,184.21 L253.097,179.78 L257.081,174.01 L257.745,170.9 L257.305,168.69 L259.305,166.92 L259.969,164.7 L261.082,163.37 L261.082,160.5 L261.97,159.16 L268.394,156.29 L270.385,156.94 L275.92,155.4 L279.034,155.4 L282.138,154.72 L284.569,155.61 L287.683,156.29 L290.114,157.83 L295.209,158.49 L296.538,158.93 L299.651,164.04 L300.979,164.48 L307.412,163.59 L308.505,162.27 L309.169,158.72 L308.299,154.28 L306.075,150.51 L306.075,150.51 Z" id="Fill-23"></path>
                    <polyline id="Fill-24" points="281.905 46.56 283.242 47.45 285.457 47.88 290.114 47 293.666 40.79 292.779 37.92 288.571 33.47 284.793 32.37 279.034 33.26 277.921 37.92 278.146 39.69 281.905 46.56"></polyline>
                    <path d="M310.077,88.89 L312.741,81.36 L319.165,69.61 L319.389,66.72 L321.605,66.29 L323.166,63.63 L324.055,60.96 L326.486,57.41 L328.262,55.64 L327.588,52.76 L329.366,52.99 L331.815,50.1 L337.799,41.01 L341.119,38.12 L342.661,35.69 L344.438,34.15 L346.214,29.71 L348.879,28.59 L349.767,25.27 L353.086,23.51 L353.75,25.95 L352.862,28.59 L352.862,31.25 L351.31,33.03 L349.319,37.92 L345.765,43.68 L344.877,47.45 L343.334,47.66 L342.446,49.88 L340.455,51.43 L339.342,53.88 L336.462,56.98 L336.023,59.63 L334.91,60.96 L334.022,62.74 L332.469,63.18 L331.132,65.85 L326.709,69.83 L325.382,72.48 L322.502,75.6 L321.83,80.02 L320.277,79.8 L318.958,80.69 L315.621,84.25 L314.742,86.45 L312.086,88.45 L310.749,90.44 L308.973,90.88 L310.077,88.89 Z M424.67,96.65 L426.223,94.21 L427.335,90 L426.447,86.45 L422.679,82.91 L420.463,82.02 L419.35,82.02 L414.04,83.12 L411.814,84.25 L404.942,89.78 L403.623,91.56 L396.087,99.53 L393.637,101.31 L390.758,104.86 L389.879,106.41 L386.55,108.84 L385.653,111.05 L384.559,112.61 L382.558,114.17 L379.463,117.93 L375.91,121.25 L375.461,123.25 L373.469,123.47 L373.021,125.46 L370.814,126.36 L369.926,127.24 L369.477,127.24 L370.374,122.58 L368.373,120.37 L368.373,119.04 L370.59,118.15 L371.039,115.49 L373.254,111.73 L373.021,106.41 L374.797,104.41 L375.022,100.65 L377.023,96.21 L377.686,93.1 L376.359,88.45 L373.021,85.13 L368.373,83.8 L364.831,84.69 L361.501,86.9 L359.276,87.78 L357.949,89.34 L355.518,90.88 L353.292,91.56 L351.525,94.44 L348.42,94.66 L346.654,97.99 L343.764,98.43 L343.1,99.75 L338.893,103.97 L337.781,105.73 L337.678,106.07 L336.911,106.41 L333.133,112.17 L330.478,112.61 L328.262,116.83 L325.149,118.15 L324.943,120.59 L324.26,121.93 L322.053,121.93 L320.501,123.25 L318.51,123.91 L317.836,125.02 L318.071,126.8 L316.949,128.12 L314.742,127.46 L308.084,131.23 L307.42,130.58 L304.981,130.58 L303.213,128.12 L302.549,124.59 L302.549,121.93 L301.876,119.48 L303.213,112.83 L302.989,109.72 L303.877,107.96 L304.326,106.18 L306.533,107.51 L309.637,108.18 L311.853,107.51 L312.741,106.41 L314.069,102.85 L319.389,97.54 L320.941,94.88 L321.605,92.66 L323.166,91.99 L324.055,89.78 L326.486,88.89 L326.925,86.9 L329.805,82.02 L332.469,80.02 L333.573,75.37 L335.798,74.26 L338.678,68.05 L341.119,65.17 L342.006,62.29 L343.334,60.96 L345.102,57.85 L347.991,53.88 L348.879,51.43 L351.31,47.88 L351.543,45.44 L352.862,45.44 L355.957,39.24 L357.733,36.8 L357.967,32.59 L359.958,31.04 L360.183,27.28 L361.941,25.95 L363.717,20.4 L365.718,17.08 L364.4,12.64 L359.958,8.2 L354.863,6.87 L350.656,7.76 L346.878,10.2 L345.541,12.41 L345.102,14.63 L343.784,15.07 L340.23,17.3 L339.342,18.19 L338.229,20.17 L337.565,22.39 L332.909,26.84 L327.588,34.15 L325.382,37.68 L324.709,40.79 L323.821,43.01 L321.605,43.24 L319.165,47.45 L317.182,49.22 L315.621,52.32 L313.844,53.44 L310.964,59.19 L308.534,62.74 L306.981,65.85 L307.42,68.05 L305.42,69.39 L301.437,76.26 L295.228,93.1 L292.358,97.76 L292.564,101.75 L289.909,109.96 L290.581,113.28 L290.357,115.94 L291.675,118.81 L289.909,119.04 L289.693,124.59 L292.124,128.8 L292.564,132.56 L295.453,136.99 L296.771,138.33 L299.436,140.1 L301.876,139.2 L304.326,140.54 L306.308,140.54 L306.757,141.21 L308.309,140.54 L310.516,140.54 L311.853,139.43 L314.742,139.43 L316.06,138.33 L318.276,137.65 L319.165,136.11 L322.053,134.99 L323.372,133.44 L325.149,132.34 L326.709,130.78 L328.262,131.01 L330.693,126.8 L333.358,125.25 L334.91,121.93 L337.565,121.25 L339.782,118.15 L341.782,117.04 L343.1,115.05 L345.326,113.94 L345.541,109.72 L347.541,106.85 L347.252,105.84 L347.308,105.73 L351.31,103.97 L352.404,100.65 L356.181,100.2 L359.276,98.2 L359.958,100.2 L357.509,106.63 L354.629,119.04 L352.404,124.8 L351.749,128.35 L353.086,134.12 L353.975,135.88 L361.287,144.09 L364.166,144.97 L365.709,144.75 L368.598,141.86 L371.253,139.88 L374.358,134.78 L377.453,132.34 L379.014,129.45 L381.006,127.69 L382.342,125.02 L384.774,123.91 L385.653,121.48 L387.878,120.81 L389.43,118.6 L389.879,116.83 L390.758,115.49 L392.758,115.05 L394.526,113.05 L396.742,111.5 L398.518,108.84 L402.287,106.85 L404.502,103.74 L406.279,102.85 L408.934,102.2 L410.487,99.97 L412.926,99.53 L414.704,98.2 L416.91,98.64 L418.92,98.2 L421.127,96.65 L423.577,97.31 L424.67,96.65 L424.67,96.65 Z" id="Fill-25"></path>
                    <path d="M479.331,92.44 L476.891,94.44 L474.459,97.54 L474.01,99.75 L474.459,101.31 L475.563,103.09 L478.003,105.52 L478.666,107.96 L477.779,112.83 L474.235,120.15 L471.794,122.13 L470.457,125.02 L466.25,128.35 L465.371,130.58 L463.594,130.58 L461.379,133.44 L458.937,134.33 L457.161,136.11 L452.729,137.21 L448.952,136.56 L446.521,136.56 L446.082,133.89 L444.539,129.89 L445.643,124.36 L444.305,122.81 L444.09,122.13 L444.539,121.25 L446.746,119.93 L447.419,117.04 L449.635,110.61 L455.385,104.63 L456.713,101.53 L459.387,100.65 L461.602,98.2 L463.594,97.76 L465.146,95.1 L466.475,95.1 L467.811,95.98 L474.459,93.99 L476.236,92.21 L478.666,91.12 L479.331,91.77 L479.331,92.44 Z M490.635,97.76 L489.092,95.33 L487.97,92.88 L484.875,91.32 L486.428,89.11 L486.652,87.78 L486.204,85.57 L485.1,84.01 L481.987,82.02 L470.906,78.47 L468.026,79.8 L457.161,82.68 L451.411,84.9 L440.323,91.77 L438.106,92.44 L434.553,95.77 L429.907,99.31 L427.906,102.2 L425.465,102.85 L421.482,108.62 L421.921,111.05 L421.921,113.94 L422.585,114.82 L423.483,115.05 L424.811,114.82 L426.354,113.28 L427.691,110.85 L428.793,111.5 L429.682,111.05 L430.346,108.84 L432.123,108.41 L433.674,106.63 L434.553,107.96 L431.898,116.15 L431.898,120.37 L431,122.13 L430.795,127.91 L431.898,131.01 L434.338,135.44 L435.666,136.99 L439.873,140.54 L442.763,143.43 L445.428,144.09 L447.194,145.41 L449.635,144.75 L454.936,144.75 L456.713,143.43 L459.387,143.2 L467.587,138.99 L468.924,138.99 L473.131,134.99 L474.665,135.44 L483.108,127.91 L483.763,125.69 L485.54,123.47 L486.652,121.04 L489.307,117.93 L489.747,116.83 L490.186,113.72 L490.186,111.29 L491.299,109.51 L491.748,106.85 L491.524,101.31 L490.635,97.76 L490.635,97.76 Z" id="Fill-26"></path>
                    <path d="M561.585,28.59 L561.585,31.25 L560.024,33.03 L558.032,37.92 L554.487,43.68 L553.598,47.45 L552.045,47.66 L551.149,49.88 L549.167,51.43 L548.054,53.88 L545.165,56.98 L544.726,59.63 L543.632,60.96 L542.734,62.74 L541.182,63.18 L539.854,65.85 L535.422,69.83 L534.094,72.48 L531.214,75.6 L530.541,80.02 L528.989,79.8 L527.661,80.69 L524.342,84.25 L523.453,86.45 L520.789,88.45 L519.451,90.44 L517.675,90.88 L518.797,88.89 L521.452,81.36 L527.885,69.61 L528.11,66.72 L530.327,66.29 L531.869,63.63 L532.757,60.96 L535.198,57.41 L536.964,55.64 L536.31,52.76 L538.086,52.99 L540.518,50.1 L546.501,41.01 L549.822,38.12 L551.391,35.69 L553.149,34.15 L554.926,29.71 L557.583,28.59 L558.472,25.27 L561.8,23.51 L562.464,25.95 L561.585,28.59 Z M573.104,12.64 L568.663,8.2 L563.567,6.87 L559.36,7.76 L555.598,10.2 L554.262,12.41 L553.823,14.63 L552.485,15.07 L548.933,17.3 L548.054,18.19 L546.941,20.17 L546.279,22.39 L541.63,26.84 L536.31,34.15 L534.094,37.68 L533.42,40.79 L532.541,43.01 L530.327,43.24 L527.885,47.45 L525.885,49.22 L524.342,52.32 L522.565,53.44 L519.694,59.19 L517.235,62.74 L515.693,65.85 L516.142,68.05 L514.141,69.39 L510.157,76.26 L503.931,93.1 L501.061,97.76 L501.284,101.75 L498.629,109.96 L499.284,113.28 L499.069,115.94 L500.396,118.81 L498.629,119.04 L498.396,124.59 L500.836,128.8 L501.284,132.56 L504.174,136.99 L505.501,138.33 L508.156,140.1 L510.597,139.2 L513.028,140.54 L515.029,140.54 L515.469,141.21 L517.02,140.54 L519.246,140.54 L520.564,139.43 L523.453,139.43 L524.781,138.33 L526.997,137.65 L527.885,136.11 L530.766,134.99 L532.102,133.44 L533.87,132.34 L535.422,130.78 L536.964,131.01 L539.405,126.8 L542.07,125.25 L543.632,121.93 L546.279,121.25 L548.503,118.15 L550.495,117.04 L551.821,115.05 L554.038,113.94 L554.262,109.72 L556.257,106.85 L555.375,103.74 L555.598,100.2 L553.823,99.08 L550.495,101.31 L550.056,103.74 L549.167,104.86 L545.615,106.41 L541.855,112.17 L539.18,112.61 L536.964,116.83 L533.87,118.15 L533.645,120.59 L532.981,121.93 L530.766,121.93 L529.213,123.25 L527.212,123.91 L526.548,125.02 L526.772,126.8 L525.679,128.12 L523.453,127.46 L516.806,131.23 L516.142,130.58 L513.691,130.58 L511.934,128.12 L511.252,124.59 L511.252,121.93 L510.597,119.48 L511.934,112.83 L511.691,109.72 L512.589,107.96 L513.028,106.18 L515.244,107.51 L518.357,108.18 L520.564,107.51 L521.452,106.41 L522.789,102.85 L528.11,97.54 L529.663,94.88 L530.327,92.66 L531.869,91.99 L532.757,89.78 L535.198,88.89 L535.646,86.9 L538.526,82.02 L541.182,80.02 L542.294,75.37 L544.511,74.26 L547.39,68.05 L549.822,65.17 L550.709,62.29 L552.045,60.96 L553.823,57.85 L556.696,53.88 L557.583,51.43 L560.024,47.88 L560.249,45.44 L561.585,45.44 L564.69,39.24 L566.456,36.8 L566.671,32.59 L568.663,31.04 L568.897,27.28 L570.673,25.95 L572.44,20.4 L574.433,17.08 L573.104,12.64 L573.104,12.64 Z" id="Fill-27"></path>
                    <polyline id="Fill-28" points="758.838 84.6 762.618 75.29 764.388 73.96 765.718 70.19 769.918 64.87 772.588 56.24 775.028 53.58 775.478 51.58 775.478 46.7 777.918 44.93 778.568 38.06 781.898 31.18 781.688 25.42 783.008 22.97 782.348 18.55 783.218 11.67 780.578 4.37 778.568 3.04 775.478 2.59 769.918 3.93 766.168 7.02 764.608 11.01 763.938 20.11 765.948 26.75 765.058 27.86 765.268 31.18 764.388 33.18 766.378 34.94 766.608 36.51 765.058 37.17 764.388 39.38 764.388 43.59 761.958 47.37 761.738 50.26 759.278 54.67 758.188 60 755.978 64.66 755.748 67.09 752.858 71.53 752.418 73.75 748.208 81.95 747.538 84.16 746.218 85.5 746.218 87.7 743.558 88.14 741.778 93.92 739.558 95.02 736.458 101.45 734.678 102.78 733.818 105.66 731.798 106.99 730.038 109.65 723.598 115.63 720.948 117.63 718.497 118.3 716.067 118.3 713.636 115.86 713.186 114.98 713.401 111.87 712.747 106.99 712.962 104.11 712.747 101.89 713.636 98.79 713.636 97.02 714.964 93.92 714.524 90.15 716.517 89.48 716.292 86.82 717.179 85.28 717.395 83.27 720.068 76.84 720.508 72.86 722.278 70.86 722.498 68.86 724.048 63.77 724.048 61.34 727.148 60.45 727.588 59.56 727.588 57.34 730.478 50.91 731.798 47.14 734.018 43.59 734.678 40.94 736.458 37.83 736.908 36.06 736.458 33.4 734.678 29.85 727.378 28.09 720.508 32.51 717.618 38.94 715.618 39.83 715.403 42.26 714.524 44.48 714.524 46.7 711.636 48.48 710.083 50.69 708.101 52.24 707.204 55.35 705.642 58.67 705.876 60.45 702.099 63.32 700.995 65.77 694.561 73.96 693.907 75.29 693.907 77.95 691.468 78.62 689.905 79.52 686.802 84.39 683.481 87.7 682.388 90.15 680.368 91.26 679.05 93.24 677.058 94.58 675.722 97.47 671.075 102.12 668.849 105.66 665.97 107.43 663.313 110.1 661.538 110.76 660.435 113.86 654.216 118.51 652.011 119.19 652.226 114.98 653.337 113.2 654.45 112.76 654.899 107.67 657.769 101.68 660.435 95.25 661.538 93.69 663.099 88.83 664.192 87.26 665.091 84.6 666.194 83.5 669.298 77.06 670.177 73.75 678.386 59.56 680.817 53.58 682.595 52.03 682.817 50.46 683.921 48.69 686.372 46.04 687.034 43.39 687.69 38.72 686.595 34.07 685.034 31.42 680.163 26.98 672.179 26.09 661.763 27.86 658.657 29.41 653.122 31.18 649.794 33.18 647.577 34.07 645.802 35.62 643.37 36.06 639.153 39.61 632.28 42.7 625.185 47.8 618.087 51.13 614.993 53.8 608.56 57.78 599.247 67.32 597.929 71.3 598.144 72.42 598.583 73.08 603.024 75.08 605.251 76.62 614.769 70.86 618.311 63.32 623.407 59.34 628.073 54.47 631.618 52.9 632.28 51.8 633.169 48.69 637.601 48.92 639.153 46.48 643.136 45.14 650.009 41.16 659.321 38.94 663.099 36.06 665.755 36.51 667.962 35.83 670.401 38.28 667.745 45.14 665.306 48.48 662.864 53.58 661.323 54.91 660.884 57.78 658.657 61.54 657.106 65.32 654.001 69.1 654.001 71.53 652.011 73.31 652.897 75.08 649.794 78.62 646.69 85.71 644.259 90.15 640.481 98.35 638.704 100.11 636.946 103.67 635.376 108.76 633.833 111.43 633.833 115.42 631.401 119.19 629.186 130.04 633.394 139.36 638.929 143.79 640.706 144.01 645.362 142.68 651.122 138.24 653.561 136.03 654.001 133.82 656.227 133.59 656.882 132.93 657.546 130.49 658.657 131.37 661.089 130.72 665.755 126.28 667.073 125.62 668.401 124.06 668.194 122.51 670.177 122.51 673.944 117.86 674.628 114.31 676.835 114.31 679.05 112.97 680.817 110.99 681.052 108.54 682.595 109.21 683.921 107.43 684.37 104.33 687.251 104.55 688.13 102.34 691.019 97.47 696.563 90.37 697.667 87.26 698.114 86.82 699.657 87.49 699.003 89.92 697.45 93.69 697.45 97.68 696.339 100.11 695.45 104.11 695.685 108.11 695.235 111.65 696.788 115.86 698.114 121.62 700.546 123.84 702.099 126.51 703.21 127.84 705.202 129.16 712.515 131.16 715.618 130.94 723.598 127.84 735.568 117.86 737.348 115.42 737.568 112.97 739.118 113.2 739.998 111.65 740.448 108.54 744.008 107.67 750.658 97.02 750.868 94.36 753.538 93.24 757.508 86.16 758.838 84.6"></polyline>
                    <path d="M808.708,120.15 L806.278,122.13 L804.938,125.02 L800.728,128.35 L799.838,130.58 L798.068,130.58 L795.838,133.44 L793.408,134.33 L791.638,136.11 L787.198,137.21 L783.438,136.56 L780.998,136.56 L780.568,133.89 L778.998,129.89 L780.118,124.36 L778.788,122.81 L778.568,122.13 L778.998,121.25 L781.218,119.93 L781.888,117.04 L784.098,110.61 L789.858,104.63 L791.198,101.53 L793.858,100.65 L796.068,98.2 L798.068,97.76 L799.608,95.1 L800.948,95.1 L802.278,95.98 L808.918,93.99 L810.698,92.21 L813.138,91.12 L813.798,91.77 L813.798,92.44 L811.358,94.44 L808.918,97.54 L808.488,99.75 L808.918,101.31 L810.038,103.09 L812.468,105.52 L813.138,107.96 L812.258,112.83 L808.708,120.15 Z M950.978,105.3 L952.738,102.4 L954.508,98.43 L962.268,92.66 L966.478,91.12 L968.258,90 L971.368,89.55 L974.238,88.68 L975.138,89.11 L975.798,90.23 L972.028,93.1 L970.258,95.1 L968.498,95.53 L967.818,96.87 L966.278,97.76 L963.608,100.2 L961.828,101.09 L957.188,104.86 L953.188,106.63 L951.198,107.96 L950.308,107.73 L950.978,105.3 Z M1109.288,105.96 L1107.968,105.96 L1105.308,108.41 L1097.998,113.72 L1094.888,115.26 L1092.458,118.81 L1091.568,119.48 L1091.118,121.48 L1089.128,120.81 L1087.348,122.58 L1086.688,123.7 L1084.458,125.02 L1083.138,127.02 L1078.268,128.35 L1077.588,127.91 L1076.498,124.59 L1074.718,121.93 L1074.718,120.59 L1076.928,117.27 L1077.158,110.85 L1078.028,105.07 L1077.588,101.09 L1077.818,98.64 L1075.818,93.32 L1074.718,91.77 L1071.168,89.34 L1065.408,87.56 L1058.978,89.55 L1052.108,93.1 L1049.878,93.76 L1047.668,95.77 L1045.238,97.1 L1044.128,98.64 L1042.348,100.2 L1038.808,101.75 L1035.258,105.52 L1030.598,108.62 L1029.718,108.62 L1029.048,107.51 L1030.598,104.41 L1031.048,98.2 L1030.828,96.21 L1029.938,93.99 L1024.618,87.56 L1019.518,86.45 L1017.308,87.12 L1015.078,89.11 L1012.858,92.21 L1010.878,93.1 L1009.328,94.88 L1007.118,95.1 L1003.338,97.31 L1001.338,99.08 L996.268,103.81 L994.938,105.81 L988.848,110.89 L985.118,113.72 L983.338,115.71 L979.788,117.04 L977.798,119.48 L973.588,120.81 L972.708,121.69 L971.808,123.7 L969.158,124.14 L966.928,125.02 L964.948,127.69 L960.058,127.91 L955.198,130.13 L944.318,130.13 L943.658,129.45 L943.218,127.46 L944.548,121.04 L947.438,120.81 L949.638,118.6 L950.978,119.04 L952.308,117.93 L953.858,117.49 L954.078,115.26 L954.958,113.94 L956.958,114.17 L961.618,110.4 L964.048,109.28 L964.498,107.73 L966.478,106.41 L968.498,106.41 L970.928,102.85 L974.238,102.4 L976.468,100.65 L978.248,99.75 L979.788,97.76 L981.998,97.1 L985.998,93.76 L988.438,89.78 L989.098,86.9 L988.658,84.9 L986.448,82.25 L984.228,81.13 L979.348,80.24 L977.578,79.58 L970.928,80.02 L965.828,81.36 L963.838,80.92 L960.288,83.12 L954.758,85.34 L950.088,89.34 L947.878,90.44 L946.998,91.32 L946.318,95.1 L942.108,97.54 L941.218,98.64 L940.328,100.86 L937.458,105.73 L936.558,108.18 L935.678,109.07 L934.128,114.82 L931.688,117.27 L930.578,119.48 L930.188,121.42 L928.358,120.81 L926.588,122.58 L925.928,123.7 L923.718,125.02 L922.378,127.02 L917.518,128.35 L916.828,127.91 L915.738,124.59 L913.958,121.93 L913.958,120.59 L916.178,117.27 L916.388,110.85 L917.278,105.07 L916.828,101.09 L917.078,98.64 L915.078,93.32 L913.958,91.77 L910.408,89.34 L904.658,87.56 L898.228,89.55 L891.358,93.1 L889.138,93.76 L886.908,95.77 L884.478,97.1 L883.358,98.64 L881.598,100.2 L878.058,101.75 L874.498,105.52 L869.858,108.62 L868.958,108.62 L868.298,107.51 L869.858,104.41 L870.298,98.2 L870.068,96.21 L869.178,93.99 L863.868,87.56 L858.768,86.45 L856.548,87.12 L854.338,89.11 L852.108,92.21 L850.128,93.1 L848.568,94.88 L846.358,95.1 L842.578,97.31 L841.038,98.22 L838.878,100.63 L834.498,102.06 L830.048,105.58 L826.128,107.36 L826.208,106.85 L826.008,101.31 L825.108,97.76 L823.558,95.33 L822.448,92.88 L819.338,91.32 L820.898,89.11 L821.118,87.78 L820.678,85.57 L819.568,84.01 L816.468,82.02 L805.378,78.47 L802.498,79.8 L791.638,82.68 L785.878,84.9 L774.788,91.77 L772.578,92.44 L769.038,95.77 L764.368,99.31 L762.368,102.2 L759.938,102.85 L755.948,108.62 L756.388,111.05 L756.388,113.94 L757.058,114.82 L757.948,115.05 L759.278,114.82 L760.838,113.28 L762.168,110.85 L763.268,111.5 L764.148,111.05 L764.818,108.84 L766.578,108.41 L768.148,106.63 L769.038,107.96 L766.368,116.15 L766.368,120.37 L765.478,122.13 L765.258,127.91 L766.368,131.01 L768.798,135.44 L770.128,136.99 L774.338,140.54 L777.228,143.43 L779.878,144.09 L781.658,145.41 L784.098,144.75 L789.418,144.75 L791.198,143.43 L793.858,143.2 L802.048,138.99 L803.388,138.99 L807.608,134.99 L809.148,135.44 L817.568,127.91 L818.248,125.69 L820.018,123.47 L821.118,121.04 L824.738,119.04 L828.628,116.9 L832.158,113.37 L837.508,112.03 L841.778,109.68 L843.698,108.62 L845.238,107.07 L847.238,107.29 L849.228,104.41 L851.218,104.18 L854.548,101.31 L853.888,103.74 L850.568,109.96 L850.128,112.83 L847.908,113.28 L845.468,116.38 L843.698,117.93 L843.028,120.37 L841.028,121.48 L839.488,123.47 L838.158,132.78 L839.038,136.77 L840.588,139.2 L843.698,140.77 L845.918,141.42 L847.458,138.99 L849.678,136.77 L851.458,135.88 L852.998,135.67 L853.668,133.89 L856.548,133.22 L858.988,128.56 L859.668,128.56 L861.198,129.89 L863.628,127.46 L865.408,126.36 L865.858,123.91 L866.308,123.02 L868.518,122.13 L872.078,119.7 L882.488,110.85 L883.158,109.72 L885.378,108.18 L889.788,106.41 L897.548,101.96 L898.438,102.2 L899.328,103.29 L899.988,109.96 L899.778,117.49 L899.118,118.6 L899.778,120.37 L899.778,122.37 L900.878,125.25 L900.218,128.56 L901.328,131.67 L905.758,138.1 L908.868,139.43 L912.408,141.42 L915.078,141.21 L918.168,141.42 L921.058,139.43 L923.718,138.33 L925.488,135.67 L928.148,135.44 L929.038,133.01 L934.188,128.68 L935.908,134.33 L937.898,134.12 L939.238,137.43 L944.998,140.54 L946.318,140.97 L949.868,140.54 L952.528,139.88 L954.508,141.21 L955.638,141.42 L958.068,140.97 L965.828,138.1 L967.818,137.65 L974.038,133.89 L978.688,132.56 L980.668,129.45 L983.338,129.24 L984.878,127.91 L987.988,126.13 L988.888,124.8 L989.328,123.02 L990.658,122.58 L991.688,122.91 L993.448,121.59 L996.628,115.48 L998.388,114.82 L1001.798,111.19 L1003.348,110.54 L1005.938,107.96 L1006.528,107.12 L1007.998,107.29 L1009.988,104.41 L1011.988,104.18 L1015.318,101.31 L1014.638,103.74 L1011.328,109.96 L1010.878,112.83 L1008.648,113.28 L1006.218,116.38 L1004.438,117.93 L1003.778,120.37 L1001.788,121.48 L1000.238,123.47 L998.908,132.78 L999.798,136.77 L1001.338,139.2 L1004.438,140.77 L1006.668,141.42 L1008.208,138.99 L1010.428,136.77 L1012.198,135.88 L1013.758,135.67 L1014.428,133.89 L1017.308,133.22 L1019.738,128.56 L1020.408,128.56 L1021.958,129.89 L1024.398,127.46 L1026.158,126.36 L1026.598,123.91 L1027.048,123.02 L1029.278,122.13 L1032.828,119.7 L1043.238,110.85 L1043.898,109.72 L1046.128,108.18 L1050.558,106.41 L1058.298,101.96 L1059.198,102.2 L1060.078,103.29 L1060.758,109.96 L1060.518,117.49 L1059.868,118.6 L1060.518,120.37 L1060.518,122.37 L1061.638,125.25 L1060.968,128.56 L1062.078,131.67 L1066.508,138.1 L1069.608,139.43 L1073.168,141.42 L1075.818,141.21 L1078.928,141.42 L1081.808,139.43 L1084.458,138.33 L1086.238,135.67 L1088.898,135.44 L1089.788,133.01 L1096.658,127.24 L1098.878,126.57 L1101.758,123.02 L1106.628,118.37 L1109.288,115.05 L1109.518,109.28 L1109.968,106.85 L1109.288,105.96 L1109.288,105.96 Z" id="Fill-29"></path>
                </g>
                <rect id="Rectangle" fill="#07284A" x="1" y="2442" width="1672" height="313"></rect>
                <path d="M425.01,2692.64 C434.95,2692.64 444.645,2689.665 454.095,2683.715 C463.545,2677.765 470.16,2670.94 473.94,2663.24 C475.48,2660.16 475.62,2658.62 474.36,2658.62 C473.1,2658.62 472.05,2659.6 471.21,2661.56 C467.57,2668.7 461.655,2674.16 453.465,2677.94 C445.275,2681.72 436.7,2683.61 427.74,2683.61 C412.2,2683.61 399.67,2672.69 390.15,2650.85 C386.93,2643.43 384.095,2635.345 381.645,2626.595 C379.195,2617.845 377.83,2611.93 377.55,2608.85 C377.27,2605.77 377.13,2603.565 377.13,2602.235 C377.13,2600.905 377.27,2600.03 377.55,2599.61 C397.01,2594.71 421.23,2580.605 450.21,2557.295 C479.19,2533.985 501.66,2509.1 517.62,2482.64 C518.6,2480.96 519.09,2479.63 519.09,2478.65 C519.09,2477.67 518.845,2476.97 518.355,2476.55 C517.865,2476.13 517.41,2475.92 516.99,2475.92 C515.73,2475.92 514.19,2477.25 512.37,2479.91 C502.15,2495.45 489.165,2510.815 473.415,2526.005 C457.665,2541.195 442.545,2553.655 428.055,2563.385 C413.565,2573.115 400.65,2580.85 389.31,2586.59 C377.97,2592.33 370.2,2595.2 366,2595.2 L366,2595.2 L365.37,2595.2 C364.25,2595.62 363.69,2597.475 363.69,2600.765 C363.69,2604.055 363.83,2607.24 364.11,2610.32 C364.39,2613.4 364.95,2617.32 365.79,2622.08 C371.11,2649.24 381.47,2669.12 396.87,2681.72 C405.69,2689 415.07,2692.64 425.01,2692.64 Z M248.295,2689.91 C254.245,2689.91 259.67,2689.56 264.57,2688.86 C279.69,2686.62 293.235,2681.755 305.205,2674.265 C317.175,2666.775 326.8,2658.13 334.08,2648.33 C341.36,2638.53 348.185,2627.085 354.555,2613.995 C360.925,2600.905 366,2588.55 369.78,2576.93 C380.14,2545.01 389.31,2521.84 397.29,2507.42 C406.95,2506.44 414.02,2503.92 418.5,2499.86 C421.16,2497.48 422.49,2495.38 422.49,2493.56 C422.49,2491.74 421.93,2489.92 420.81,2488.1 C419.69,2486.28 418.045,2485.37 415.875,2485.37 C413.705,2485.37 411.465,2485.685 409.155,2486.315 C406.845,2486.945 404.115,2489.185 400.965,2493.035 C397.815,2496.885 395.47,2500.14 393.93,2502.8 C391.27,2503.08 385.075,2503.535 375.345,2504.165 C365.615,2504.795 356.97,2505.53 349.41,2506.37 C324.49,2509.03 305.45,2515.26 292.29,2525.06 C278.01,2535.42 270.87,2548.23 270.87,2563.49 C270.87,2574.27 274.65,2583.02 282.21,2589.74 C287.81,2594.78 294.11,2597.3 301.11,2597.3 C305.17,2597.3 309.51,2596.46 314.13,2594.78 C321.69,2591.98 327.57,2586.17 331.77,2577.35 C334.43,2572.17 335.76,2567.585 335.76,2563.595 C335.76,2559.605 335.13,2556.14 333.87,2553.2 C333.03,2551.66 332.05,2550.75 330.93,2550.47 C330.23,2550.47 330.02,2551.24 330.3,2552.78 C330.58,2554.32 330.72,2556.98 330.72,2560.76 C330.72,2564.54 329.6,2569.3 327.36,2575.04 C322.74,2586.94 314.69,2592.89 303.21,2592.89 C294.11,2592.89 288.02,2588.2 284.94,2578.82 C283.82,2575.32 283.26,2571.75 283.26,2568.11 C283.26,2561.25 285.22,2554.18 289.14,2546.9 C297.26,2531.78 310.91,2521.56 330.09,2516.24 C340.31,2513.3 354.59,2511.06 372.93,2509.52 C382.87,2508.68 388.89,2508.12 390.99,2507.84 C384.13,2521.7 376.15,2538.92 367.05,2559.5 C357.95,2580.08 351.615,2593.73 348.045,2600.45 C344.475,2607.17 339.575,2614.975 333.345,2623.865 C327.115,2632.755 320.605,2640.385 313.815,2646.755 C307.025,2653.125 298.625,2659.145 288.615,2664.815 C278.605,2670.485 267.86,2674.65 256.38,2677.31 C252.46,2678.43 247.91,2678.99 242.73,2678.99 C237.55,2678.99 230.97,2678.22 222.99,2676.68 C211.37,2674.44 201.29,2668.84 192.75,2659.88 C185.75,2652.74 182.25,2643.43 182.25,2631.95 C182.25,2620.75 185.33,2611.37 191.49,2603.81 C196.25,2598.07 200.31,2594.43 203.67,2592.89 C204.51,2592.47 204.93,2591.91 204.93,2591.21 C204.93,2590.09 204.02,2589.67 202.2,2589.95 C198.7,2590.37 194.255,2592.995 188.865,2597.825 C183.475,2602.655 179.975,2608.15 178.365,2614.31 C176.755,2620.47 175.95,2626.455 175.95,2632.265 C175.95,2638.075 177.07,2643.92 179.31,2649.8 C186.73,2669.12 203.25,2681.72 228.87,2687.6 C235.87,2689.14 242.345,2689.91 248.295,2689.91 Z M401.07,2502.17 C404.99,2497.55 407.755,2494.575 409.365,2493.245 C410.975,2491.915 412.55,2491.25 414.09,2491.25 C415.35,2491.25 415.98,2492.02 415.98,2493.56 C415.98,2495.8 414.09,2497.83 410.31,2499.65 C408.21,2500.77 405.13,2501.61 401.07,2502.17 Z M439.5,2654.42 C443.84,2654.42 448.46,2652.88 453.36,2649.8 C455.18,2648.68 457.105,2646.965 459.135,2644.655 C461.165,2642.345 462.775,2640.455 463.965,2638.985 C465.155,2637.515 466.555,2635.275 468.165,2632.265 C469.775,2629.255 470.895,2627.155 471.525,2625.965 C472.155,2624.775 473.135,2622.675 474.465,2619.665 C475.795,2616.655 476.67,2614.695 477.09,2613.785 C477.51,2612.875 477.37,2612.14 476.67,2611.58 C475.69,2611.16 474.64,2611.93 473.52,2613.89 C468.2,2624.39 463.16,2633.035 458.4,2639.825 C453.64,2646.615 448.74,2650.01 443.7,2650.01 C440.62,2650.01 438.38,2648.715 436.98,2646.125 C435.58,2643.535 434.88,2640.735 434.88,2637.725 C434.88,2634.715 435.265,2631.705 436.035,2628.695 C436.805,2625.685 437.75,2622.535 438.87,2619.245 C439.99,2615.955 440.62,2614.03 440.76,2613.47 C457.42,2598.21 471.77,2577.21 483.81,2550.47 C487.17,2543.19 488.85,2537.17 488.85,2532.41 C488.85,2531.15 488.78,2530.1 488.64,2529.26 C487.52,2524.64 485.35,2522.33 482.13,2522.33 C477.51,2522.33 472.82,2524.85 468.06,2529.89 C465.68,2532.41 462.425,2537.135 458.295,2544.065 C454.165,2550.995 449.125,2561.32 443.175,2575.04 C437.225,2588.76 432.64,2601.43 429.42,2613.05 C429.28,2613.61 428.545,2615.99 427.215,2620.19 C425.885,2624.39 425.01,2628.73 424.59,2633.21 C424.45,2635.87 424.38,2638.04 424.38,2639.72 C424.38,2641.4 424.625,2643.325 425.115,2645.495 C425.605,2647.665 427.04,2649.695 429.42,2651.585 C431.8,2653.475 435.16,2654.42 439.5,2654.42 Z M442.44,2606.75 C446.64,2595.97 452.065,2583.405 458.715,2569.055 C465.365,2554.705 470.65,2544.765 474.57,2539.235 C478.49,2533.705 481.15,2530.94 482.55,2530.94 C483.53,2530.94 484.02,2532.34 484.02,2535.14 C484.02,2537.94 482.375,2543.225 479.085,2550.995 C475.795,2558.765 470.65,2568.18 463.65,2579.24 C456.65,2590.3 449.58,2599.47 442.44,2606.75 Z M517.62,2654.42 C526.44,2654.42 537.29,2641.4 550.17,2615.36 C550.59,2614.38 550.8,2613.54 550.8,2612.84 C550.8,2611.58 550.24,2611.16 549.12,2611.58 C548.42,2611.72 547.79,2612.42 547.23,2613.68 C541.63,2625.16 535.96,2634.47 530.22,2641.61 C526.3,2646.51 523.01,2648.96 520.35,2648.96 C518.25,2648.96 517.2,2647.595 517.2,2644.865 C517.2,2642.135 517.655,2638.565 518.565,2634.155 C519.475,2629.745 522.24,2623.095 526.86,2614.205 C531.48,2605.315 535.05,2599.61 537.57,2597.09 C536.45,2597.37 534.735,2597.3 532.425,2596.88 C530.115,2596.46 528.68,2596.25 528.12,2596.25 C525.32,2596.25 523.01,2597.195 521.19,2599.085 C519.37,2600.975 517.13,2604.51 514.47,2609.69 C500.89,2635.45 489.9,2648.33 481.5,2648.33 C478,2648.33 476.25,2645.6 476.25,2640.14 C476.25,2634.68 478.98,2627.4 484.44,2618.3 C488.78,2610.74 493.47,2604.16 498.51,2598.56 C507.33,2589.04 514.75,2584.28 520.77,2584.28 C525.95,2584.28 529.31,2586.8 530.85,2591.84 C532.67,2592.12 533.86,2591.56 534.42,2590.16 C534.98,2588.76 534.56,2587.29 533.16,2585.75 C528.68,2581.27 523.22,2579.03 516.78,2579.03 C514.4,2579.03 511.88,2579.38 509.22,2580.08 C499.42,2582.46 491.16,2587.57 484.44,2595.41 C472.54,2609.55 466.59,2623.48 466.59,2637.2 C466.59,2644.34 468.69,2649.38 472.89,2652.32 C474.71,2653.72 476.74,2654.42 478.98,2654.42 C487.1,2654.42 496.76,2645.39 507.96,2627.33 C506.56,2632.37 505.86,2636.64 505.86,2640.14 C505.86,2643.64 506.49,2646.44 507.75,2648.54 C510.27,2652.46 513.56,2654.42 517.62,2654.42 Z M551.85,2654.84 C554.37,2654.84 557.24,2654.14 560.46,2652.74 C565.36,2654.14 570.4,2654 575.58,2652.32 C578.8,2651.34 581.6,2649.66 583.98,2647.28 L583.98,2647.28 L588.39,2642.66 C589.79,2641.4 591.19,2639.65 592.59,2637.41 C593.99,2635.17 595.145,2633.28 596.055,2631.74 C596.965,2630.2 598.05,2628.17 599.31,2625.65 C600.57,2623.13 601.48,2621.205 602.04,2619.875 C602.6,2618.545 603.195,2617.215 603.825,2615.885 C604.455,2614.555 604.77,2613.75 604.77,2613.47 C604.77,2612.35 604.14,2611.86 602.88,2612 C602.18,2612 601.69,2612.35 601.41,2613.05 C593.85,2627.75 588.6,2636.92 585.66,2640.56 C580.2,2647.14 574.67,2650.43 569.07,2650.43 C568.37,2650.43 567.11,2650.29 565.29,2650.01 C569.35,2647.21 572.85,2643.57 575.79,2639.09 C578.73,2634.61 580.2,2630.06 580.2,2625.44 C580.2,2620.82 578.59,2614.87 575.37,2607.59 C573.97,2604.65 572.71,2601.92 571.59,2599.4 C570.47,2596.88 569.91,2593.66 569.91,2589.74 C569.91,2582.32 572.29,2577.49 577.05,2575.25 C577.89,2574.83 578.87,2574.62 579.99,2574.62 C581.11,2574.62 582.44,2574.97 583.98,2575.67 C585.52,2576.37 586.535,2576.16 587.025,2575.04 C587.515,2573.92 586.815,2572.905 584.925,2571.995 C583.035,2571.085 581.11,2570.63 579.15,2570.63 C571.73,2570.63 565.22,2576.58 559.62,2588.48 C554.58,2599.4 548.49,2611.65 541.35,2625.23 C539.39,2625.37 537.535,2626.63 535.785,2629.01 C534.035,2631.39 533.16,2633.875 533.16,2636.465 C533.16,2639.055 533.37,2641.26 533.79,2643.08 C535.89,2650.92 541.91,2654.84 551.85,2654.84 Z M558.15,2648.54 C552.27,2645.74 549.33,2640.21 549.33,2631.95 C549.33,2627.75 547.86,2625.65 544.92,2625.65 C547.44,2621.03 554.02,2608.08 564.66,2586.8 C564.52,2587.78 564.45,2589.6 564.45,2592.26 L564.450919,2592.46409 C564.474806,2595.17703 564.9645,2600.219 565.92,2607.59 C566.9,2615.15 567.39,2621.1 567.39,2625.44 C567.39,2636.08 564.31,2643.78 558.15,2648.54 Z M550.38,2651.27 C546.32,2651.27 543.73,2649.38 542.61,2645.6 C542.47,2644.62 542.4,2643.71 542.4,2642.87 C542.4,2639.93 543.66,2637.2 546.18,2634.68 C546.6,2641.96 549.4,2647.21 554.58,2650.43 C553.46,2650.99 552.06,2651.27 550.38,2651.27 Z M605.61,2654.84 C608.13,2654.84 611,2654.14 614.22,2652.74 C619.12,2654.14 624.16,2654 629.34,2652.32 C632.56,2651.34 635.36,2649.66 637.74,2647.28 L637.74,2647.28 L642.15,2642.66 C643.55,2641.4 644.95,2639.65 646.35,2637.41 C647.75,2635.17 648.905,2633.28 649.815,2631.74 C650.725,2630.2 651.81,2628.17 653.07,2625.65 C654.33,2623.13 655.24,2621.205 655.8,2619.875 C656.36,2618.545 656.955,2617.215 657.585,2615.885 C658.215,2614.555 658.53,2613.75 658.53,2613.47 C658.53,2612.35 657.9,2611.86 656.64,2612 C655.94,2612 655.45,2612.35 655.17,2613.05 C647.61,2627.75 642.36,2636.92 639.42,2640.56 C633.96,2647.14 628.43,2650.43 622.83,2650.43 C622.13,2650.43 620.87,2650.29 619.05,2650.01 C623.11,2647.21 626.61,2643.57 629.55,2639.09 C632.49,2634.61 633.96,2630.06 633.96,2625.44 C633.96,2620.82 632.35,2614.87 629.13,2607.59 C627.73,2604.65 626.47,2601.92 625.35,2599.4 C624.23,2596.88 623.67,2593.66 623.67,2589.74 C623.67,2582.32 626.05,2577.49 630.81,2575.25 C631.65,2574.83 632.63,2574.62 633.75,2574.62 C634.87,2574.62 636.2,2574.97 637.74,2575.67 C639.28,2576.37 640.295,2576.16 640.785,2575.04 C641.275,2573.92 640.575,2572.905 638.685,2571.995 C636.795,2571.085 634.87,2570.63 632.91,2570.63 C625.49,2570.63 618.98,2576.58 613.38,2588.48 C608.34,2599.4 602.25,2611.65 595.11,2625.23 C593.15,2625.37 591.295,2626.63 589.545,2629.01 C587.795,2631.39 586.92,2633.875 586.92,2636.465 C586.92,2639.055 587.13,2641.26 587.55,2643.08 C589.65,2650.92 595.67,2654.84 605.61,2654.84 Z M611.91,2648.54 C606.03,2645.74 603.09,2640.21 603.09,2631.95 C603.09,2627.75 601.62,2625.65 598.68,2625.65 C601.2,2621.03 607.78,2608.08 618.42,2586.8 C618.28,2587.78 618.21,2589.6 618.21,2592.26 L618.210919,2592.46409 C618.234806,2595.17703 618.7245,2600.219 619.68,2607.59 C620.66,2615.15 621.15,2621.1 621.15,2625.44 C621.15,2636.08 618.07,2643.78 611.91,2648.54 Z M604.14,2651.27 C600.08,2651.27 597.49,2649.38 596.37,2645.6 C596.23,2644.62 596.16,2643.71 596.16,2642.87 C596.16,2639.93 597.42,2637.2 599.94,2634.68 C600.36,2641.96 603.16,2647.21 608.34,2650.43 C607.22,2650.99 605.82,2651.27 604.14,2651.27 Z M677.01,2574.83 C679.39,2574.83 681.56,2573.99 683.52,2572.31 C685.48,2570.63 686.67,2568.6 687.09,2566.22 C687.51,2563.84 686.985,2561.81 685.515,2560.13 C684.045,2558.45 682.12,2557.61 679.74,2557.61 C677.36,2557.61 675.19,2558.45 673.23,2560.13 C671.27,2561.81 670.08,2563.84 669.66,2566.22 C669.38,2568.6 669.94,2570.63 671.34,2572.31 C672.74,2573.99 674.63,2574.83 677.01,2574.83 Z M661.155,2654 C666.265,2654 671.69,2650.71 677.43,2644.13 C679.53,2641.75 681.875,2638.355 684.465,2633.945 C687.055,2629.535 688.805,2626.35 689.715,2624.39 C690.625,2622.43 691.64,2620.225 692.76,2617.775 C693.88,2615.325 694.44,2613.785 694.44,2613.155 C694.44,2612.525 694.3,2612.07 694.02,2611.79 C693.04,2610.95 692.06,2611.58 691.08,2613.68 C683.1,2629.64 676.52,2640.21 671.34,2645.39 C668.4,2648.05 665.6,2649.38 662.94,2649.38 C658.6,2649.38 656.43,2647.35 656.43,2643.29 C656.43,2639.65 657.62,2635.24 660,2630.06 L660,2630.06 L676.8,2590.79 C678.2,2588.27 678.62,2586.415 678.06,2585.225 C677.5,2584.035 675.61,2583.44 672.39,2583.44 L672.39,2583.44 L660.84,2583.65 C662.52,2585.89 663.36,2587.71 663.36,2589.11 C663.36,2590.51 663.22,2591.63 662.94,2592.47 L662.94,2592.47 L649.5,2626.7 C647.68,2631.18 646.77,2635.31 646.77,2639.09 C646.77,2642.87 647.89,2646.3 650.13,2649.38 C652.37,2652.46 656.045,2654 661.155,2654 Z M705.99,2654.84 C716.49,2654.84 725.31,2649.94 732.45,2640.14 C735.67,2635.94 738.855,2630.445 742.005,2623.655 C745.155,2616.865 746.73,2613.19 746.73,2612.63 C746.73,2612.07 746.45,2611.72 745.89,2611.58 C744.49,2611.3 743.3,2612.28 742.32,2614.52 C731.96,2638.46 720.41,2650.43 707.67,2650.43 C704.45,2650.43 701.965,2649.275 700.215,2646.965 C698.465,2644.655 697.59,2641.54 697.59,2637.62 C697.59,2631.74 698.57,2626.42 700.53,2621.66 C703.47,2621.66 707.74,2620.715 713.34,2618.825 C718.94,2616.935 723.28,2614.8 726.36,2612.42 C736.44,2604.72 741.48,2596.67 741.48,2588.27 C741.48,2585.89 740.29,2583.72 737.91,2581.76 C735.39,2580.08 732.66,2579.24 729.72,2579.24 C726.78,2579.24 723.7,2579.94 720.48,2581.34 C713.76,2584.14 707.81,2588.585 702.63,2594.675 C697.45,2600.765 693.355,2607.345 690.345,2614.415 C687.335,2621.485 685.83,2628.17 685.83,2634.47 C685.83,2640.77 687.79,2645.74 691.71,2649.38 C695.63,2653.02 700.39,2654.84 705.99,2654.84 Z M702,2618.09 C705.64,2610.81 709.84,2604.23 714.6,2598.35 C722.58,2588.69 728.53,2583.86 732.45,2583.86 C734.69,2583.86 735.81,2585.26 735.81,2588.06 C735.81,2595.34 731.96,2602.27 724.26,2608.85 C720.9,2611.65 716.945,2613.89 712.395,2615.57 C707.845,2617.25 704.38,2618.09 702,2618.09 Z M784.53,2655.47 C794.19,2655.47 803.01,2649.45 810.99,2637.41 C814.77,2631.53 817.71,2626.14 819.81,2621.24 C821.91,2616.34 822.96,2613.61 822.96,2613.05 C822.96,2612.49 822.68,2611.895 822.12,2611.265 C821.56,2610.635 820.79,2611.23 819.81,2613.05 C812.81,2627.47 807.14,2637.06 802.8,2641.82 C797.48,2646.72 792.86,2649.17 788.94,2649.17 C787.96,2649.17 786.98,2649.03 786,2648.75 C781.38,2647.21 778.23,2643.08 776.55,2636.36 C775.85,2633.7 775.5,2630.725 775.5,2627.435 C775.5,2624.145 776.34,2620.54 778.02,2616.62 C785.3,2615.92 791.985,2613.435 798.075,2609.165 C804.165,2604.895 808.19,2600.1 810.15,2594.78 C810.85,2592.68 811.2,2590.79 811.2,2589.11 C811.2,2583.93 808.12,2581.34 801.96,2581.34 C799.16,2581.34 795.38,2582.11 790.62,2583.65 C780.54,2587.43 769.13,2597.23 756.39,2613.05 C758.21,2607.59 761.78,2599.575 767.1,2589.005 C772.42,2578.435 779.63,2566.115 788.73,2552.045 C797.83,2537.975 804.97,2528.98 810.15,2525.06 C809.03,2525.34 807.315,2525.27 805.005,2524.85 C802.695,2524.43 801.47,2524.22 801.33,2524.22 L801.33,2524.22 L800.07,2524.22 C795.59,2524.22 790.97,2527.65 786.21,2534.51 C780.33,2543.33 770.075,2562.02 755.445,2590.58 C740.815,2619.14 731.05,2636.64 726.15,2643.08 C725.87,2643.64 725.73,2644.13 725.73,2644.55 C725.73,2646.65 726.43,2647.07 727.83,2645.81 C731.19,2642.59 738.61,2630.13 750.09,2608.43 C748.83,2611.37 746.835,2615.675 744.105,2621.345 C741.375,2627.015 739.1,2632.02 737.28,2636.36 C735.46,2640.7 734.025,2644.725 732.975,2648.435 C731.925,2652.145 732.45,2654 734.55,2654 L734.55,2654 L747.78,2654 C746.94,2653.3 746.52,2651.76 746.52,2649.38 C746.52,2647 747.185,2642.73 748.515,2636.57 C749.845,2630.41 751.56,2625.3 753.66,2621.24 C758.56,2614.24 764.685,2607.555 772.035,2601.185 C779.385,2594.815 785.86,2591.63 791.46,2591.63 C795.24,2591.63 797.13,2593.52 797.13,2597.3 C797.13,2600.38 794.785,2603.81 790.095,2607.59 C785.405,2611.37 780.61,2613.26 775.71,2613.26 L775.71,2613.26 L774.45,2613.26 C771.65,2613.54 769.2,2615.71 767.1,2619.77 C765,2623.83 763.95,2627.82 763.95,2631.74 C763.95,2639.44 766.26,2645.67 770.88,2650.43 C774.1,2653.79 778.65,2655.47 784.53,2655.47 Z M853.83,2655.05 C854.81,2654.49 856.84,2654.14 859.92,2654 C863,2653.86 865.065,2653.615 866.115,2653.265 C867.165,2652.915 868.04,2651.97 868.74,2650.43 C878.26,2632.09 887.92,2618.44 897.72,2609.48 C902.9,2604.58 906.75,2601.5 909.27,2600.24 C910.39,2599.68 911.265,2599.435 911.895,2599.505 C912.525,2599.575 912.77,2600.555 912.63,2602.445 C912.49,2604.335 911.16,2607.94 908.64,2613.26 C900.94,2629.36 897.09,2640.28 897.09,2646.02 C897.09,2647.42 897.65,2649.1 898.77,2651.06 C899.89,2653.02 901.64,2654 904.02,2654 C905.28,2648.26 909.235,2640.63 915.885,2631.11 C922.535,2621.59 928.87,2614.03 934.89,2608.43 C940.91,2602.83 945.075,2600.03 947.385,2600.03 C949.695,2600.03 950.85,2600.765 950.85,2602.235 C950.85,2603.705 950.08,2605.7 948.54,2608.22 C942.24,2618.3 938.39,2625.58 936.99,2630.06 C935.59,2634.54 934.89,2638.355 934.89,2641.505 C934.89,2644.655 935.52,2647.14 936.78,2648.96 C939.58,2652.88 942.975,2654.84 946.965,2654.84 C950.955,2654.84 954.525,2653.755 957.675,2651.585 C960.825,2649.415 963.415,2647.21 965.445,2644.97 C967.475,2642.73 969.925,2639.23 972.795,2634.47 C975.665,2629.71 977.52,2626.49 978.36,2624.81 C979.2,2623.13 980.32,2620.89 981.72,2618.09 C983.12,2615.29 983.82,2613.54 983.82,2612.84 C983.82,2612.14 983.4,2611.58 982.56,2611.16 C981.72,2610.74 980.88,2611.51 980.04,2613.47 C975.14,2624.67 969.4,2634.26 962.82,2642.24 C958.48,2647.28 954.63,2649.8 951.27,2649.8 C948.61,2649.8 947.28,2647.84 947.28,2643.92 C947.28,2635.1 955.82,2615.5 972.9,2585.12 C972.34,2584.84 971.64,2584.7 970.8,2584.7 C967.3,2584.7 961.735,2586.8 954.105,2591 C946.475,2595.2 939.86,2599.785 934.26,2604.755 C928.66,2609.725 922.78,2616.06 916.62,2623.76 C918.02,2620.96 921.1,2615.22 925.86,2606.54 C930.62,2597.86 933,2592.47 933,2590.37 C933,2587.99 931.6,2586.24 928.8,2585.12 C928.38,2584.56 927.61,2584.455 926.49,2584.805 C925.37,2585.155 924.495,2585.33 923.865,2585.33 C923.235,2585.33 922.255,2585.75 920.925,2586.59 C919.595,2587.43 918.545,2588.025 917.775,2588.375 C917.005,2588.725 915.92,2589.46 914.52,2590.58 C913.12,2591.7 912.035,2592.575 911.265,2593.205 C910.495,2593.835 909.375,2594.815 907.905,2596.145 C906.435,2597.475 905.315,2598.49 904.545,2599.19 C903.775,2599.89 902.69,2600.87 901.29,2602.13 C899.89,2603.39 897.755,2605.28 894.885,2607.8 C892.015,2610.32 887.29,2615.64 880.71,2623.76 C892.47,2600.24 900.94,2587.08 906.12,2584.28 C905,2584.56 903.285,2584.49 900.975,2584.07 C898.665,2583.65 897.23,2583.44 896.67,2583.44 C893.73,2583.44 891.42,2584.28 889.74,2585.96 C885.96,2589.6 878.4,2603.46 867.06,2627.54 C860.76,2640.98 856.35,2650.15 853.83,2655.05 Z M994.74,2654.84 C1005.24,2654.84 1014.06,2649.94 1021.2,2640.14 C1024.42,2635.94 1027.605,2630.445 1030.755,2623.655 C1033.905,2616.865 1035.48,2613.19 1035.48,2612.63 C1035.48,2612.07 1035.2,2611.72 1034.64,2611.58 C1033.24,2611.3 1032.05,2612.28 1031.07,2614.52 C1020.71,2638.46 1009.16,2650.43 996.42,2650.43 C993.2,2650.43 990.715,2649.275 988.965,2646.965 C987.215,2644.655 986.34,2641.54 986.34,2637.62 C986.34,2631.74 987.32,2626.42 989.28,2621.66 C992.22,2621.66 996.49,2620.715 1002.09,2618.825 C1007.69,2616.935 1012.03,2614.8 1015.11,2612.42 C1025.19,2604.72 1030.23,2596.67 1030.23,2588.27 C1030.23,2585.89 1029.04,2583.72 1026.66,2581.76 C1024.14,2580.08 1021.41,2579.24 1018.47,2579.24 C1015.53,2579.24 1012.45,2579.94 1009.23,2581.34 C1002.51,2584.14 996.56,2588.585 991.38,2594.675 C986.2,2600.765 982.105,2607.345 979.095,2614.415 C976.085,2621.485 974.58,2628.17 974.58,2634.47 C974.58,2640.77 976.54,2645.74 980.46,2649.38 C984.38,2653.02 989.14,2654.84 994.74,2654.84 Z M990.75,2618.09 C994.39,2610.81 998.59,2604.23 1003.35,2598.35 C1011.33,2588.69 1017.28,2583.86 1021.2,2583.86 C1023.44,2583.86 1024.56,2585.26 1024.56,2588.06 C1024.56,2595.34 1020.71,2602.27 1013.01,2608.85 C1009.65,2611.65 1005.695,2613.89 1001.145,2615.57 C996.595,2617.25 993.13,2618.09 990.75,2618.09 Z M1041.36,2654.21 C1049.9,2654.21 1057.95,2648.12 1065.51,2635.94 C1068.17,2631.88 1071.81,2625.02 1076.43,2615.36 C1076.99,2613.96 1077.2,2612.945 1077.06,2612.315 C1076.92,2611.685 1076.465,2611.51 1075.695,2611.79 C1074.925,2612.07 1074.26,2612.84 1073.7,2614.1 C1065.58,2630.2 1058.16,2640.77 1051.44,2645.81 C1048.5,2647.49 1045.84,2648.33 1043.46,2648.33 C1041.36,2648.33 1039.82,2647.42 1038.84,2645.6 C1037.86,2643.78 1037.37,2641.995 1037.37,2640.245 C1037.37,2638.495 1037.58,2636.71 1038,2634.89 L1038,2634.89 L1042.83,2613.47 C1053.75,2603.39 1063.06,2591.84 1070.76,2578.82 L1070.76,2578.82 L1082.94,2578.82 C1083.64,2578.82 1084.165,2578.435 1084.515,2577.665 C1084.865,2576.895 1084.935,2576.125 1084.725,2575.355 C1084.515,2574.585 1084.06,2574.2 1083.36,2574.2 L1083.36,2574.2 L1073.28,2574.2 C1076.36,2568.32 1079.51,2561.95 1082.73,2555.09 C1085.95,2548.23 1087.56,2542.385 1087.56,2537.555 C1087.56,2532.725 1085.95,2529.54 1082.73,2528 C1082.03,2527.72 1080.875,2527.58 1079.265,2527.58 C1077.655,2527.58 1075.03,2528.875 1071.39,2531.465 C1067.75,2534.055 1063.76,2539.06 1059.42,2546.48 C1055.08,2553.9 1050.39,2563.14 1045.35,2574.2 L1045.35,2574.2 L1032.75,2574.2 C1032.05,2574.2 1031.525,2574.585 1031.175,2575.355 C1030.825,2576.125 1030.755,2576.895 1030.965,2577.665 C1031.175,2578.435 1031.63,2578.82 1032.33,2578.82 L1032.33,2578.82 L1043.25,2578.82 C1032.05,2606.12 1026.45,2625.58 1026.45,2637.2 C1026.45,2642.1 1027.85,2646.16 1030.65,2649.38 C1033.45,2652.6 1037.02,2654.21 1041.36,2654.21 Z M1068.66,2574.2 L1058.16,2574.2 C1065.58,2557.4 1070.865,2546.76 1074.015,2542.28 C1077.165,2537.8 1079.51,2535.56 1081.05,2535.56 C1082.03,2535.56 1082.52,2536.96 1082.52,2539.76 C1082.52,2546.2 1077.9,2557.68 1068.66,2574.2 L1068.66,2574.2 Z M1044.72,2606.75 C1050.6,2592.05 1054.38,2582.74 1056.06,2578.82 L1056.06,2578.82 L1065.93,2578.82 C1059.35,2589.6 1052.28,2598.91 1044.72,2606.75 Z M1191.09,2673.11 C1216.57,2673.11 1238.34,2667.65 1256.4,2656.73 C1272.08,2647.35 1283.98,2636.15 1292.1,2623.13 C1296.72,2615.85 1299.03,2608.71 1299.03,2601.71 C1299.03,2596.81 1297.455,2591.49 1294.305,2585.75 C1291.155,2580.01 1285.45,2574.62 1277.19,2569.58 C1271.73,2566.22 1263.085,2561.845 1251.255,2556.455 C1239.425,2551.065 1231.55,2547.18 1227.63,2544.8 C1217.13,2538.22 1211.88,2530.8 1211.88,2522.54 C1211.88,2516.38 1215.45,2510.22 1222.59,2504.06 C1227.21,2500.14 1232.67,2497.06 1238.97,2494.82 C1251.01,2490.48 1262,2488.31 1271.94,2488.31 C1283.28,2488.31 1292.17,2491.39 1298.61,2497.55 C1303.09,2501.89 1305.33,2506.51 1305.33,2511.41 C1305.33,2512.81 1305.12,2514.28 1304.7,2515.82 C1303.16,2521.7 1299.03,2525.06 1292.31,2525.9 C1288.53,2526.32 1286.78,2527.44 1287.06,2529.26 C1287.34,2530.52 1288.74,2530.8 1291.26,2530.1 C1297.14,2528.42 1301.83,2526.18 1305.33,2523.38 C1310.37,2519.04 1312.89,2514.14 1312.89,2508.68 C1312.89,2507.28 1312.75,2505.88 1312.47,2504.48 C1310.79,2497.34 1306.205,2491.985 1298.715,2488.415 C1291.225,2484.845 1281.53,2483.06 1269.63,2483.06 C1244.29,2483.06 1224.69,2488.94 1210.83,2500.7 C1201.17,2508.96 1196.34,2517.43 1196.34,2526.11 C1196.34,2536.05 1201.73,2544.66 1212.51,2551.94 C1217.41,2555.16 1226.965,2559.815 1241.175,2565.905 C1255.385,2571.995 1264.8,2576.86 1269.42,2580.5 C1277.96,2587.78 1282.23,2596.18 1282.23,2605.7 C1282.23,2609.9 1281.39,2614.24 1279.71,2618.72 C1274.39,2633.84 1262.7,2646.16 1244.64,2655.68 C1236.24,2660.02 1227.525,2663.135 1218.495,2665.025 C1209.465,2666.915 1202.325,2667.86 1197.075,2667.86 C1191.825,2667.86 1187.87,2667.72 1185.21,2667.44 C1161.69,2665.76 1145.17,2658.55 1135.65,2645.81 C1130.33,2638.67 1127.67,2630.34 1127.67,2620.82 C1127.67,2606.4 1131.59,2593.03 1139.43,2580.71 C1143.07,2574.97 1147.9,2569.72 1153.92,2564.96 C1156.72,2562.58 1157.595,2561.25 1156.545,2560.97 C1155.495,2560.69 1153.92,2560.97 1151.82,2561.81 C1141.74,2566.57 1133.235,2574.69 1126.305,2586.17 C1119.375,2597.65 1115.91,2608.15 1115.91,2617.67 C1115.91,2632.65 1121.51,2644.9 1132.71,2654.42 C1147.13,2666.88 1166.59,2673.11 1191.09,2673.11 Z M1326.96,2654.21 C1335.5,2654.21 1343.55,2648.12 1351.11,2635.94 C1353.77,2631.88 1357.41,2625.02 1362.03,2615.36 C1362.59,2613.96 1362.8,2612.945 1362.66,2612.315 C1362.52,2611.685 1362.065,2611.51 1361.295,2611.79 C1360.525,2612.07 1359.86,2612.84 1359.3,2614.1 C1351.18,2630.2 1343.76,2640.77 1337.04,2645.81 C1334.1,2647.49 1331.44,2648.33 1329.06,2648.33 C1326.96,2648.33 1325.42,2647.42 1324.44,2645.6 C1323.46,2643.78 1322.97,2641.995 1322.97,2640.245 C1322.97,2638.495 1323.18,2636.71 1323.6,2634.89 L1323.6,2634.89 L1328.43,2613.47 C1339.35,2603.39 1348.66,2591.84 1356.36,2578.82 L1356.36,2578.82 L1368.54,2578.82 C1369.24,2578.82 1369.765,2578.435 1370.115,2577.665 C1370.465,2576.895 1370.535,2576.125 1370.325,2575.355 C1370.115,2574.585 1369.66,2574.2 1368.96,2574.2 L1368.96,2574.2 L1358.88,2574.2 C1361.96,2568.32 1365.11,2561.95 1368.33,2555.09 C1371.55,2548.23 1373.16,2542.385 1373.16,2537.555 C1373.16,2532.725 1371.55,2529.54 1368.33,2528 C1367.63,2527.72 1366.475,2527.58 1364.865,2527.58 C1363.255,2527.58 1360.63,2528.875 1356.99,2531.465 C1353.35,2534.055 1349.36,2539.06 1345.02,2546.48 C1340.68,2553.9 1335.99,2563.14 1330.95,2574.2 L1330.95,2574.2 L1318.35,2574.2 C1317.65,2574.2 1317.125,2574.585 1316.775,2575.355 C1316.425,2576.125 1316.355,2576.895 1316.565,2577.665 C1316.775,2578.435 1317.23,2578.82 1317.93,2578.82 L1317.93,2578.82 L1328.85,2578.82 C1317.65,2606.12 1312.05,2625.58 1312.05,2637.2 C1312.05,2642.1 1313.45,2646.16 1316.25,2649.38 C1319.05,2652.6 1322.62,2654.21 1326.96,2654.21 Z M1354.26,2574.2 L1343.76,2574.2 C1351.18,2557.4 1356.465,2546.76 1359.615,2542.28 C1362.765,2537.8 1365.11,2535.56 1366.65,2535.56 C1367.63,2535.56 1368.12,2536.96 1368.12,2539.76 C1368.12,2546.2 1363.5,2557.68 1354.26,2574.2 L1354.26,2574.2 Z M1330.32,2606.75 C1336.2,2592.05 1339.98,2582.74 1341.66,2578.82 L1341.66,2578.82 L1351.53,2578.82 C1344.95,2589.6 1337.88,2598.91 1330.32,2606.75 Z M1381.56,2574.83 C1383.94,2574.83 1386.11,2573.99 1388.07,2572.31 C1390.03,2570.63 1391.22,2568.6 1391.64,2566.22 C1392.06,2563.84 1391.535,2561.81 1390.065,2560.13 C1388.595,2558.45 1386.67,2557.61 1384.29,2557.61 C1381.91,2557.61 1379.74,2558.45 1377.78,2560.13 C1375.82,2561.81 1374.63,2563.84 1374.21,2566.22 C1373.93,2568.6 1374.49,2570.63 1375.89,2572.31 C1377.29,2573.99 1379.18,2574.83 1381.56,2574.83 Z M1365.705,2654 C1370.815,2654 1376.24,2650.71 1381.98,2644.13 C1384.08,2641.75 1386.425,2638.355 1389.015,2633.945 C1391.605,2629.535 1393.355,2626.35 1394.265,2624.39 C1395.175,2622.43 1396.19,2620.225 1397.31,2617.775 C1398.43,2615.325 1398.99,2613.785 1398.99,2613.155 C1398.99,2612.525 1398.85,2612.07 1398.57,2611.79 C1397.59,2610.95 1396.61,2611.58 1395.63,2613.68 C1387.65,2629.64 1381.07,2640.21 1375.89,2645.39 C1372.95,2648.05 1370.15,2649.38 1367.49,2649.38 C1363.15,2649.38 1360.98,2647.35 1360.98,2643.29 C1360.98,2639.65 1362.17,2635.24 1364.55,2630.06 L1364.55,2630.06 L1381.35,2590.79 C1382.75,2588.27 1383.17,2586.415 1382.61,2585.225 C1382.05,2584.035 1380.16,2583.44 1376.94,2583.44 L1376.94,2583.44 L1365.39,2583.65 C1367.07,2585.89 1367.91,2587.71 1367.91,2589.11 C1367.91,2590.51 1367.77,2591.63 1367.49,2592.47 L1367.49,2592.47 L1354.05,2626.7 C1352.23,2631.18 1351.32,2635.31 1351.32,2639.09 C1351.32,2642.87 1352.44,2646.3 1354.68,2649.38 C1356.92,2652.46 1360.595,2654 1365.705,2654 Z M1418.31,2574.83 C1420.69,2574.83 1422.86,2573.99 1424.82,2572.31 C1426.78,2570.63 1427.9,2569.055 1428.18,2567.585 C1428.46,2566.115 1428.6,2564.82 1428.6,2563.7 C1428.6,2562.58 1427.935,2561.285 1426.605,2559.815 C1425.275,2558.345 1423.42,2557.61 1421.04,2557.61 C1418.66,2557.61 1416.49,2558.45 1414.53,2560.13 C1412.57,2561.81 1411.485,2563.35 1411.275,2564.75 C1411.065,2566.15 1410.96,2567.41 1410.96,2568.53 C1410.96,2569.65 1411.59,2570.98 1412.85,2572.52 C1414.11,2574.06 1415.93,2574.83 1418.31,2574.83 Z M1320.555,2720.36 C1326.785,2720.36 1332.77,2719.135 1338.51,2716.685 C1344.25,2714.235 1349.22,2711.26 1353.42,2707.76 C1364.48,2698.52 1375.4,2684.1 1386.18,2664.5 C1393.88,2661.7 1400.04,2659.04 1404.66,2656.52 C1409.28,2654 1413.48,2650.64 1417.26,2646.44 C1421.04,2642.24 1424.12,2638.11 1426.5,2634.05 C1428.88,2629.99 1431.225,2625.615 1433.535,2620.925 C1435.845,2616.235 1437,2613.54 1437,2612.84 C1437,2612.14 1436.615,2611.58 1435.845,2611.16 C1435.075,2610.74 1434.2,2611.51 1433.22,2613.47 C1427.06,2625.09 1422.685,2632.825 1420.095,2636.675 C1417.505,2640.525 1414.425,2643.92 1410.855,2646.86 C1407.285,2649.8 1404.24,2651.83 1401.72,2652.95 C1399.2,2654.07 1395.21,2655.68 1389.75,2657.78 C1394.93,2647.56 1399.27,2638.32 1402.77,2630.06 L1402.77,2630.06 L1419.57,2590.79 C1420.97,2588.27 1421.39,2586.415 1420.83,2585.225 C1420.27,2584.035 1418.38,2583.44 1415.16,2583.44 L1415.16,2583.44 L1403.61,2583.65 C1405.43,2585.89 1406.34,2587.71 1406.34,2589.11 C1406.34,2590.51 1406.13,2591.63 1405.71,2592.47 L1405.71,2592.47 L1394.58,2616.62 C1393.6,2618.86 1394.23,2619.98 1396.47,2619.98 C1386.95,2639.58 1381.875,2650.045 1381.245,2651.375 C1380.615,2652.705 1378.55,2656.38 1375.05,2662.4 C1371.69,2663.38 1364.13,2665.305 1352.37,2668.175 C1340.61,2671.045 1331.16,2674.16 1324.02,2677.52 C1314.5,2681.86 1307.92,2687.6 1304.28,2694.74 C1302.18,2699.36 1301.13,2703.49 1301.13,2707.13 C1301.13,2710.77 1302.81,2713.885 1306.17,2716.475 C1309.53,2719.065 1314.325,2720.36 1320.555,2720.36 Z M1316.04,2716.16 C1313.24,2716.16 1310.86,2715.425 1308.9,2713.955 C1306.94,2712.485 1305.96,2710.49 1305.96,2707.97 C1305.96,2705.45 1306.73,2702.65 1308.27,2699.57 C1312.05,2691.87 1318.49,2686.06 1327.59,2682.14 C1333.33,2679.62 1347.82,2675.28 1371.06,2669.12 C1365.04,2680.32 1355.45,2691.8 1342.29,2703.56 C1332.91,2711.96 1324.16,2716.16 1316.04,2716.16 Z M1443.3,2654.42 C1447.64,2654.42 1452.26,2652.88 1457.16,2649.8 C1458.98,2648.68 1460.905,2646.965 1462.935,2644.655 C1464.965,2642.345 1466.575,2640.455 1467.765,2638.985 C1468.955,2637.515 1470.355,2635.275 1471.965,2632.265 C1473.575,2629.255 1474.695,2627.155 1475.325,2625.965 C1475.955,2624.775 1476.935,2622.675 1478.265,2619.665 C1479.595,2616.655 1480.47,2614.695 1480.89,2613.785 C1481.31,2612.875 1481.17,2612.14 1480.47,2611.58 C1479.49,2611.16 1478.44,2611.93 1477.32,2613.89 C1472,2624.39 1466.96,2633.035 1462.2,2639.825 C1457.44,2646.615 1452.54,2650.01 1447.5,2650.01 C1444.42,2650.01 1442.18,2648.715 1440.78,2646.125 C1439.38,2643.535 1438.68,2640.735 1438.68,2637.725 C1438.68,2634.715 1439.065,2631.705 1439.835,2628.695 C1440.605,2625.685 1441.55,2622.535 1442.67,2619.245 C1443.79,2615.955 1444.42,2614.03 1444.56,2613.47 C1461.22,2598.21 1475.57,2577.21 1487.61,2550.47 C1490.97,2543.19 1492.65,2537.17 1492.65,2532.41 C1492.65,2531.15 1492.58,2530.1 1492.44,2529.26 C1491.32,2524.64 1489.15,2522.33 1485.93,2522.33 C1481.31,2522.33 1476.62,2524.85 1471.86,2529.89 C1469.48,2532.41 1466.225,2537.135 1462.095,2544.065 C1457.965,2550.995 1452.925,2561.32 1446.975,2575.04 C1441.025,2588.76 1436.44,2601.43 1433.22,2613.05 C1433.08,2613.61 1432.345,2615.99 1431.015,2620.19 C1429.685,2624.39 1428.81,2628.73 1428.39,2633.21 C1428.25,2635.87 1428.18,2638.04 1428.18,2639.72 C1428.18,2641.4 1428.425,2643.325 1428.915,2645.495 C1429.405,2647.665 1430.84,2649.695 1433.22,2651.585 C1435.6,2653.475 1438.96,2654.42 1443.3,2654.42 Z M1446.24,2606.75 C1450.44,2595.97 1455.865,2583.405 1462.515,2569.055 C1469.165,2554.705 1474.45,2544.765 1478.37,2539.235 C1482.29,2533.705 1484.95,2530.94 1486.35,2530.94 C1487.33,2530.94 1487.82,2532.34 1487.82,2535.14 C1487.82,2537.94 1486.175,2543.225 1482.885,2550.995 C1479.595,2558.765 1474.45,2568.18 1467.45,2579.24 C1460.45,2590.3 1453.38,2599.47 1446.24,2606.75 Z" id="KlassiekmetStijl" stroke="#FFE7B9" stroke-width="2" fill="#FCE1AF" fill-rule="nonzero"></path>
            </g>
        </g>
    </g>
</svg>